<?xml version="1.0" encoding="UTF-8" standalone="no"?>
<svg
   version="1.1"
   id="svg7"
   viewBox="0 0 121.8898 28.3465"
   sodipodi:docname="finike-quiz.cdr"
   xmlns:inkscape="http://www.inkscape.org/namespaces/inkscape"
   xmlns:sodipodi="http://sodipodi.sourceforge.net/DTD/sodipodi-0.dtd"
   xmlns="http://www.w3.org/2000/svg"
   xmlns:svg="http://www.w3.org/2000/svg">
  <defs
     id="defs11" />
  <sodipodi:namedview
     id="namedview9"
     pagecolor="#ffffff"
     bordercolor="#666666"
     borderopacity="1.0"
     inkscape:pageshadow="2"
     inkscape:pageopacity="0.0"
     inkscape:pagecheckerboard="0" />
  <g
     id="Layer1000">
    <path
       d="m 5.6429,18.6571 c 0,-0.3359 -0.0232,-3.672 -0.0232,-4.0561 v -2.0398 l 4.733,0.0479 -0.0697,-3.788 C 7.6847,8.8931 6.1302,9.0332 5.6197,9.0332 V 5.3691 l 5.104,-0.1202 -0.0926,-3.992 c -2.4364,0.1241 -8.2594,0.388 -10.162,0.388 0.0465,0.6962 0.093,6.4602 0.093,6.844 v 3.1842 c 0,0.576 0,5.7121 -0.093,6.984 z M 19.7022,8.833 c 0,-2.876 0.0695,-6.76 0.093,-7.192 h -5.3827 c 0,0.576 0.0697,6.7359 0.0697,7.1441 v 2.5881 c 0,0.6199 -0.0232,6.228 -0.0697,7.2839 h 5.3827 c -0.0235,-0.5519 -0.093,-4.8402 -0.093,-7.236 z m 8.9552,9.9922 c -0.0229,-0.792 -0.0465,-7.7281 -0.0465,-8.712 0.3481,0.288 8.7234,7.1518 11.5076,9.0238 l 0.2321,-0.1199 c 0.0695,-1.5599 0.2316,-4.968 0.4176,-8.4481 0.2086,-3.4881 0.4175,-7.056 0.5567,-8.928 L 36.5922,1.497 c -0.0233,1.0321 0.0462,7.4642 0.0462,8.784 C 35.8265,9.6571 28.3791,3.8251 25.0846,1.3289 l -0.2321,0.144 C 24.6206,4.665 24.0636,16.9532 23.9244,18.6571 Z M 50.6976,8.833 c 0,-2.876 0.0698,-6.76 0.093,-7.192 h -5.3827 c 0,0.576 0.0697,6.7359 0.0697,7.1441 v 2.5881 c 0,0.6199 -0.0232,6.228 -0.0697,7.2839 h 5.3827 c -0.0232,-0.5519 -0.093,-4.8402 -0.093,-7.236 z m 10.3241,10.0642 c -0.0465,-0.4561 -0.1159,-5.832 -0.1159,-7.6802 v -0.432 h 0.0465 c 1.508,2.2802 5.7534,7.9441 6.148,8.4481 L 71.1836,15.537 C 70.2323,14.5052 66.9146,10.9052 66.0793,9.9451 67.3322,8.5771 70.1161,5.673 70.998,4.7129 L 67.1468,1.209 C 66.613,1.8811 62.2976,7.4492 60.9523,9.2492 H 60.9058 V 8.625 c 0,-2.088 0.0927,-6.8641 0.1159,-7.2479 H 55.616 c 0,0.5519 0.093,5.4 0.093,7.488 v 2.5441 c 0,2.736 -0.0697,6.7918 -0.093,7.488 z m 23.3629,-4.1281 c -1.0902,0.0961 -4.5936,0.0479 -5.1971,0.0479 v -2.8318 c 0.5105,0 3.5963,0.0958 4.2228,0.0958 L 83.3406,8.2412 c -1.0211,0.0958 -3.6888,0.216 -4.1531,0.216 V 5.2889 c 0.4176,0 4.0601,-0.1199 4.9187,-0.1199 L 84.0132,1.1849 C 83.1549,1.2569 75.3596,1.6211 74.0605,1.6211 74.0837,2.317 74.13,8.121 74.13,8.5051 v 3.2159 c 0,0.5479 0,5.6642 -0.0695,6.9361 1.2064,0 9.5817,0.2401 10.417,0.2401 z"
       style="fill:#ddddff;fill-rule:evenodd;stroke:#343434;stroke-width:0.7087;stroke-linecap:butt;stroke-linejoin:round;stroke-dasharray:none"
       id="path2" />
    <path
       d="m 85.2823,21.2443 c 0.0258,-0.2495 0.0587,-0.495 0.0952,-0.7371 0.0369,-0.2383 0.0698,-0.4801 0.0956,-0.7259 0.0731,-0.341 0.1649,-0.6012 0.2823,-0.7736 0.1137,-0.1723 0.2529,-0.2568 0.4178,-0.2568 0.0698,0 0.1321,0.0074 0.1834,0.0258 0.0477,0.0181 0.0879,0.055 0.1174,0.1137 l 0.0184,0.0439 c -0.011,0.0439 -0.0295,0.0952 -0.0479,0.1613 -0.0145,0.0624 -0.0366,0.1429 -0.0587,0.2347 0.0295,0.1026 0.0516,0.2347 0.0661,0.3997 0.0147,0.165 0.0221,0.3628 0.0221,0.5902 0,0.0442 0.0147,0.1173 0.0476,0.2273 0.0332,0.1063 0.0734,0.2421 0.121,0.4071 0.1724,0.5023 0.3082,0.8983 0.4071,1.188 0.0989,0.2897 0.1687,0.4731 0.2052,0.5428 0.1834,0.3518 0.3923,0.6123 0.6234,0.7809 0.231,0.1687 0.4841,0.2529 0.7554,0.2529 0.165,0 0.286,-0.0111 0.3628,-0.0292 0.0771,-0.0148 0.1174,-0.055 0.1174,-0.11 -0.8138,-1.122 -1.4227,-2.1084 -1.8187,-2.9665 -0.396,-0.858 -0.5939,-1.595 -0.5939,-2.211 0.0037,-0.2418 0.0074,-0.4728 0.0074,-0.6894 0,-0.0694 -0.0111,-0.1686 -0.0405,-0.2931 -0.0292,-0.1284 -0.044,-0.2165 -0.044,-0.2752 0.0369,-0.3813 0.0771,-0.7333 0.1284,-1.0559 0.1284,-0.8175 0.3997,-1.584 0.8141,-2.2952 0.4179,-0.7152 0.9862,-1.3788 1.7085,-1.9948 0.3081,-0.2676 0.5868,-0.4949 0.8399,-0.6783 0.2528,-0.1871 0.4765,-0.3263 0.6709,-0.4218 0.2861,-0.1502 0.5758,-0.2639 0.8652,-0.3444 0.2897,-0.0771 0.5868,-0.1174 0.8949,-0.1174 0.5791,0 1.0888,0.099 1.529,0.2968 0.4399,0.1945 0.8249,0.4916 1.1511,0.8876 0.3082,0.3702 0.5355,0.792 0.6821,1.2574 0.1468,0.4657 0.2199,0.9901 0.2199,1.5806 0,0.1355 -0.0037,0.2894 -0.0147,0.4618 -0.0108,0.1723 -0.0292,0.3631 -0.0513,0.5683 -0.0255,0.2823 -0.0476,0.506 -0.0624,0.6747 -0.0144,0.1686 -0.0292,0.286 -0.0439,0.3594 -0.0074,0.1358 -0.0292,0.2934 -0.0624,0.4731 -0.0366,0.1794 -0.0879,0.3702 -0.1502,0.5683 -0.0734,0.2381 -0.1321,0.4437 -0.1761,0.6197 -0.0476,0.176 -0.0734,0.3152 -0.0805,0.4141 -0.0073,0.0698 -0.0405,0.1724 -0.0918,0.3008 -0.055,0.1284 -0.1284,0.275 -0.22,0.4399 -0.0734,0.1248 -0.1428,0.2495 -0.2163,0.3779 -0.0697,0.1281 -0.1431,0.2528 -0.2126,0.3776 -0.0586,0.1355 -0.1394,0.3041 -0.242,0.5023 -0.1026,0.2015 -0.2347,0.4252 -0.3923,0.6672 -0.2274,0.2787 -0.506,0.6344 -0.836,1.0596 -0.3265,0.4255 -0.7152,0.9204 -1.1662,1.4777 -0.0144,0.0661 0.0258,0.1505 0.1174,0.2532 0.0918,0.1063 0.231,0.231 0.4181,0.3812 0.0513,0.044 0.1174,0.11 0.1979,0.1945 0.0844,0.0879 0.1723,0.1905 0.2642,0.3115 0.1136,0.1576 0.2786,0.3192 0.4949,0.4842 0.2126,0.1649 0.4765,0.3336 0.792,0.5059 0.0952,0.0953 0.2163,0.1979 0.3665,0.3189 0.1505,0.1174 0.3229,0.2532 0.5134,0.4034 0.2092,0.1355 0.3631,0.2565 0.462,0.3594 0.0989,0.1027 0.1505,0.1832 0.1505,0.2418 l -0.011,0.1063 c -0.1211,0.0698 -0.2274,0.165 -0.3229,0.2824 -0.0916,0.1173 -0.2676,0.2273 -0.5241,0.3265 -0.0661,0 -0.1469,-0.0037 -0.2421,-0.011 C 94.6911,27.7526 94.5774,27.7305 94.449,27.6976 94.2106,27.5326 93.998,27.43 93.8109,27.3895 93.6204,27.3529 93.4773,27.2869 93.3857,27.2027 93.2794,27.1514 93.1547,27.0816 93.0115,26.9898 92.8687,26.8946 92.7,26.7846 92.5055,26.6562 92.2893,26.4838 92.0217,26.2638 91.6991,25.9926 91.3799,25.7213 91.006,25.3877 90.5842,24.9953 90.5074,24.9182 90.3864,24.834 90.2288,24.7496 c -0.055,0 -0.1579,0.0808 -0.3082,0.2421 -0.1502,0.1612 -0.7517,0.2897 -1.8003,0.3812 -0.1136,-0.0439 -0.2531,-0.0845 -0.4181,-0.1284 -0.1649,-0.0439 -0.3557,-0.0842 -0.5683,-0.1174 -0.0661,-0.0586 -0.1355,-0.1244 -0.2089,-0.1941 -0.0734,-0.0734 -0.165,-0.1469 -0.2713,-0.2274 -0.0513,-0.0221 -0.1026,-0.0513 -0.1576,-0.0918 -0.0516,-0.0366 -0.1247,-0.0916 -0.2203,-0.1539 -0.2052,-0.1174 -0.3886,-0.3558 -0.5462,-0.726 -0.1576,-0.3702 -0.3007,-0.8543 -0.4289,-1.4556 -0.0258,-0.1649 -0.055,-0.3373 -0.0844,-0.517 0,-0.0513 0.0147,-0.121 0.0439,-0.2089 0.0295,-0.0919 0.0479,-0.1579 0.0624,-0.2018 z m 6.5339,-8.9136 c -0.4655,0 -0.902,0.1026 -1.3088,0.3079 -0.4071,0.2055 -0.7883,0.5133 -1.1477,0.9314 -0.3484,0.3923 -0.6123,0.8031 -0.792,1.2283 -0.1798,0.4288 -0.2676,0.8798 -0.2676,1.3529 0,0.4071 0.0218,0.7884 0.0694,1.1441 0.0479,0.3558 0.1211,0.682 0.2203,0.9825 0.1868,0.5539 0.3225,0.9754 0.4141,1.2725 0.0882,0.2934 0.1395,0.4657 0.1539,0.5133 0.0808,0.1026 0.1469,0.1761 0.2055,0.2274 0.2934,0.4657 0.5902,0.9167 0.891,1.3566 0.2347,0.3629 0.4325,0.6381 0.5941,0.8212 0.1613,0.1834 0.286,0.275 0.3702,0.275 0.2421,0 0.5244,-0.1868 0.8396,-0.5536 0.3192,-0.3702 0.6784,-0.9238 1.0781,-1.6645 0.3631,-0.6784 0.6528,-1.2762 0.8617,-1.7895 0.2089,-0.5134 0.3373,-0.946 0.3812,-1.2943 0.0771,-0.5976 0.154,-1.2099 0.2237,-1.8406 -0.0366,-0.1284 -0.0697,-0.2457 -0.1063,-0.3557 -0.0221,-0.0698 -0.0403,-0.1576 -0.055,-0.2566 -0.0147,-0.1029 -0.0366,-0.2236 -0.0624,-0.3668 -0.1576,-0.7588 -0.4509,-1.3308 -0.8798,-1.7161 -0.4292,-0.3812 -0.9902,-0.5754 -1.6832,-0.5754 z m 6.006,7.9858 c 0,-0.1503 -0.0366,-0.3887 -0.1063,-0.7112 -0.0734,-0.3226 -0.1063,-0.5647 -0.1063,-0.7297 0,-0.0915 0.0074,-0.2384 0.0258,-0.4362 0.0181,-0.1945 0.0255,-0.341 0.0255,-0.4329 0,-0.2639 -0.0147,-0.6636 -0.0476,-1.199 -0.0329,-0.5315 -0.0476,-0.9312 -0.0476,-1.1951 0,-0.4439 0.0255,-1.0194 0.0768,-1.7198 0.0479,-0.7041 0.121,-1.5253 0.2129,-2.4712 0.0439,-0.3447 0.121,-0.6052 0.231,-0.7847 0.11,-0.1797 0.2602,-0.2678 0.4473,-0.2678 0.0624,0 0.1244,0.0442 0.1868,0.1284 0.0624,0.0878 0.1284,0.2162 0.1981,0.3886 0.165,0.1576 0.33,0.3007 0.495,0.4292 0.1284,0.1136 0.2236,0.2565 0.2897,0.4215 0.066,0.1686 0.0952,0.3705 0.0952,0.5978 0,0.2089 -0.0439,0.5023 -0.1318,0.8872 -0.0918,0.3813 -0.1358,0.671 -0.1358,0.8655 0,0.3702 -0.011,0.6854 -0.0365,0.9385 -0.0258,0.2529 -0.0624,0.4473 -0.1137,0.5868 l -0.1174,0.341 c 0.0292,0.2163 0.0587,0.4547 0.0842,0.7223 -0.0181,0.407 -0.0329,0.8322 -0.0402,1.2758 0,0.4366 0.0329,0.8876 0.1063,1.3493 0.0697,0.4621 0.1686,0.9241 0.2897,1.3898 0.1723,0.6308 0.3812,1.1036 0.627,1.4228 0.2492,0.3189 0.5244,0.4801 0.8323,0.4801 0.1576,0 0.3007,-0.0402 0.4362,-0.1136 0.1321,-0.0768 0.2568,-0.1905 0.3779,-0.3484 0.0952,-0.1281 0.1834,-0.2602 0.2712,-0.396 0.0842,-0.1392 0.1687,-0.2713 0.2566,-0.3997 0.0918,-0.1137 0.1944,-0.2602 0.3007,-0.4326 0.1063,-0.176 0.2237,-0.3849 0.3521,-0.6307 0.1247,-0.4288 0.2602,-0.8617 0.4107,-1.2979 0.1503,-0.4363 0.3005,-0.8762 0.451,-1.3201 0.0329,-0.1429 0.0805,-0.3263 0.1392,-0.5536 0.055,-0.2237 0.1137,-0.4839 0.1724,-0.7773 0.1357,-0.3594 0.2675,-0.8544 0.3996,-1.4925 0.1321,-0.6377 0.2824,-1.4116 0.4473,-2.321 0.055,-0.1428 0.1248,-0.3225 0.209,-0.5462 0.0807,-0.22 0.176,-0.4802 0.2823,-0.7736 0.0295,-0.1063 0.0845,-0.2749 0.1616,-0.5023 0.0805,-0.231 0.1905,-0.5207 0.3336,-0.8728 0.0587,-0.1686 0.1613,-0.3007 0.3115,-0.3886 0.1505,-0.0915 0.3374,-0.1358 0.561,-0.1358 0.1358,0 0.2347,0.0882 0.2934,0.2642 0.0624,0.1761 0.0915,0.44 0.0915,0.7994 0,0.682 -0.0841,1.5143 -0.2528,2.4967 -0.1687,0.9865 -0.4326,2.1121 -0.792,3.3809 -0.0221,0.1137 -0.055,0.2566 -0.1026,0.4326 -0.0476,0.176 -0.1026,0.3739 -0.1687,0.5975 -0.007,0.1358 -0.0221,0.2897 -0.0476,0.4658 -0.0258,0.176 -0.0587,0.3778 -0.1029,0.6086 -0.1137,0.3997 -0.2089,0.8288 -0.286,1.2872 -0.0731,0.4583 -0.1355,0.9349 -0.1758,1.4298 0,0.0734 -0.0147,0.1797 -0.0405,0.3228 -0.0255,0.1429 -0.0587,0.3153 -0.1026,0.5134 -0.0403,0.2015 -0.0697,0.3813 -0.0842,0.5389 -0.0147,0.1576 -0.0221,0.3044 -0.0221,0.4399 0.0221,0.1945 0.0439,0.3779 0.066,0.5502 0.0916,0.0989 0.1613,0.1831 0.209,0.2492 0.0439,0.0697 0.0697,0.1247 0.0697,0.1686 -0.044,0.1284 -0.1174,0.2676 -0.22,0.4181 -0.1063,0.1503 -0.2384,0.3116 -0.4034,0.4839 -0.1686,0.1945 -0.3373,0.341 -0.5023,0.44 -0.1649,0.0992 -0.3118,0.1505 -0.4473,0.1505 -0.1284,0 -0.2531,-0.0808 -0.3741,-0.2458 -0.1245,-0.1613 -0.1832,-0.3152 -0.1832,-0.4583 V 24.537 c 0.0292,-0.0734 0.055,-0.1539 0.0732,-0.2458 0,-0.0366 -0.007,-0.0734 -0.0255,-0.1137 -0.0185,-0.0402 -0.0332,-0.0915 -0.0477,-0.1576 0.0145,-0.0328 0.0366,-0.0881 0.0621,-0.1613 0.0295,-0.0697 0.0587,-0.1542 0.0882,-0.2457 -0.0148,-0.0366 -0.0295,-0.0771 -0.0476,-0.1284 -0.0185,-0.0513 -0.044,-0.11 -0.0808,-0.1831 0.0147,-0.0443 0.0295,-0.0956 0.0439,-0.1543 0.0111,-0.0623 0.0332,-0.1391 0.0624,-0.231 0,-0.0587 -0.007,-0.1318 -0.0219,-0.2163 0.007,-0.0513 0.0182,-0.1247 0.0329,-0.2199 0.0148,-0.0953 0.0332,-0.2163 0.055,-0.3592 0.0258,-0.121 0.0513,-0.2239 0.0698,-0.3081 0.0184,-0.0808 0.0255,-0.1432 0.0255,-0.1871 0,-0.0513 -0.007,-0.0952 -0.0255,-0.1392 -0.0185,-0.0439 -0.044,-0.0734 -0.0698,-0.0844 -0.0439,0.011 -0.1026,0.066 -0.1797,0.1576 -0.0731,0.0955 -0.1576,0.2236 -0.2492,0.3889 -0.1173,0.1942 -0.2162,0.3481 -0.297,0.4654 -0.0808,0.1211 -0.1395,0.2019 -0.165,0.2421 l -0.0439,0.1502 c -0.1945,0.2679 -0.3668,0.4879 -0.5171,0.6602 -0.1505,0.1761 -0.2642,0.3005 -0.341,0.3702 -0.1358,0.1248 -0.3007,0.2347 -0.4878,0.3337 -0.1905,0.1026 -0.4179,0.1871 -0.6818,0.2605 -0.1357,0.0255 -0.2605,0.0623 -0.3778,0.1063 -0.2713,0 -0.5097,-0.0369 -0.7186,-0.1063 -0.2052,-0.0734 -0.3631,-0.1724 -0.4731,-0.3008 -0.4363,-0.5096 -0.7588,-1.078 -0.9751,-1.7087 -0.2129,-0.6307 -0.3229,-1.3309 -0.3229,-2.1047 z m 10.7617,2.673 c 0,-0.4033 0.0148,-0.7406 0.0477,-1.0156 0.0331,-0.2787 0.066,-0.4949 0.1099,-0.6525 -0.0147,-0.1211 -0.0328,-0.2458 -0.0513,-0.3742 0,-0.1503 0.0148,-0.4034 0.0513,-0.7515 0.0369,-0.352 0.0882,-0.8104 0.1613,-1.3788 0.0624,-0.5425 0.1174,-0.9643 0.165,-1.2614 0.0479,-0.297 0.0808,-0.4802 0.1029,-0.5425 -0.0147,-0.1247 -0.0295,-0.2568 -0.0479,-0.3997 -0.0181,-0.1432 -0.0476,-0.3008 -0.0916,-0.4731 l -0.2383,-0.1724 -0.0514,-0.1281 c 0.0148,-0.2018 0.0258,-0.4034 0.0369,-0.6052 0.0108,-0.2052 0.0329,-0.4104 0.0694,-0.6196 0.0148,-0.2566 0.0477,-0.4839 0.1027,-0.6784 0.0549,-0.1941 0.1102,-0.3591 0.1652,-0.5059 0.0218,-0.0329 0.044,-0.0842 0.0695,-0.1503 0.0258,-0.0623 0.0586,-0.1321 0.1026,-0.2018 0.066,-0.2602 0.1284,-0.5168 0.1944,-0.7736 0.0624,-0.2602 0.1321,-0.5097 0.2053,-0.7554 0.1065,-0.2418 0.2605,-0.44 0.462,-0.5902 0.1982,-0.1502 0.4436,-0.2458 0.7296,-0.2897 0.1982,-0.1063 0.3705,-0.1871 0.5134,-0.2421 0.1432,-0.055 0.2605,-0.0805 0.3447,-0.0805 0.0989,0 0.1797,0.0403 0.2384,0.1174 0.055,0.0805 0.0842,0.1905 0.0842,0.3336 0,0.0587 -0.0292,0.2566 -0.0842,0.5976 -0.0587,0.341 -0.1466,0.8104 -0.2676,1.4116 -0.0221,0.2018 -0.0587,0.4399 -0.11,0.7152 -0.0479,0.2786 -0.1173,0.6049 -0.2018,0.9862 -0.1063,0.4218 -0.2126,0.8872 -0.3152,1.3898 -0.1063,0.506 -0.1982,1.0633 -0.286,1.6719 -0.0332,0.2602 -0.0735,0.5133 -0.1174,0.7625 -0.0439,0.2531 -0.0808,0.5063 -0.1173,0.7628 -0.044,0.2971 -0.0808,0.572 -0.1137,0.8359 -0.0292,0.2605 -0.0476,0.495 -0.0476,0.7042 0,0.0768 0.007,0.1539 0.0184,0.2236 0.0108,0.0734 0.0144,0.1392 0.0144,0.2052 0.0148,0.0808 0.0111,0.1834 -0.004,0.3118 -0.0182,0.1282 -0.0403,0.2824 -0.0624,0.4618 -0.0255,0.1724 -0.0513,0.3302 -0.0731,0.4694 -0.0221,0.1395 -0.0332,0.2458 -0.0332,0.3155 0,0.3665 0.0111,0.6599 0.0295,0.8873 0.0147,0.2273 0.0365,0.3739 0.0587,0.4473 0.0476,0.1907 0.0989,0.3997 0.1502,0.6233 0,0.1211 -0.1613,0.3008 -0.4839,0.5426 -0.3229,0.2384 -0.5573,0.3594 -0.7004,0.3594 -0.0842,0 -0.1613,-0.0292 -0.231,-0.0916 -0.0661,-0.0623 -0.1355,-0.1505 -0.209,-0.2749 -0.0476,-0.1137 -0.0881,-0.2166 -0.1173,-0.3118 -0.0295,-0.0916 -0.044,-0.1797 -0.044,-0.2566 0,-0.0442 0.0145,-0.11 0.044,-0.2055 0.0292,-0.0915 0.0439,-0.1613 0.0439,-0.2015 -0.0587,-0.2163 -0.121,-0.396 -0.1942,-0.5392 -0.0147,0.0698 -0.0221,0.0587 -0.0221,-0.0439 0,-0.0989 0,-0.2897 0,-0.5684 z m 12.441,-0.8285 c 0.044,0.0915 0.0955,0.2015 0.1505,0.3226 0.055,0.121 0.1171,0.2602 0.1905,0.4181 0.0369,0.0513 0.0624,0.0952 0.0771,0.1355 0.0148,0.0405 0.0219,0.0771 0.0219,0.1136 -0.4289,0.2019 -0.8799,0.385 -1.3493,0.5502 -0.4729,0.165 -0.9681,0.3226 -1.4885,0.4655 -0.1358,0.0368 -0.3008,0.0734 -0.4879,0.1137 -0.1904,0.0405 -0.407,0.0918 -0.6488,0.1578 -0.1945,0.0695 -0.4292,0.154 -0.7115,0.2529 -0.2823,0.0952 -0.6086,0.1945 -0.9825,0.2971 -0.2347,0.0623 -0.4731,0.1247 -0.7115,0.1834 -0.2384,0.0586 -0.4765,0.11 -0.7112,0.1613 -0.2934,0.0731 -0.5647,0.1247 -0.8104,0.1613 -0.2455,0.0365 -0.4547,0.0549 -0.627,0.0549 -0.451,0 -0.7884,-0.0844 -1.012,-0.2568 -0.2237,-0.1723 -0.3373,-0.4325 -0.3373,-0.7735 0,-0.3521 0.0623,-0.6857 0.187,-1.0046 0.1248,-0.3189 0.3153,-0.6234 0.5721,-0.9094 0.0731,-0.1137 0.1686,-0.2421 0.286,-0.3849 0.1173,-0.1469 0.2528,-0.3045 0.4105,-0.4842 0.1063,-0.0879 0.2457,-0.22 0.4181,-0.4034 0.1723,-0.1831 0.3775,-0.4362 0.6196,-0.7588 0.165,-0.2018 0.3337,-0.4107 0.5097,-0.6344 0.176,-0.22 0.3447,-0.4399 0.5097,-0.6562 0.0771,-0.0992 0.176,-0.231 0.2933,-0.396 0.1174,-0.165 0.2529,-0.3558 0.4034,-0.5684 0.0916,-0.0881 0.1979,-0.1944 0.3152,-0.3228 0.1174,-0.1282 0.2458,-0.2824 0.3887,-0.4618 0.2018,-0.2568 0.4144,-0.5539 0.638,-0.8875 0.2237,-0.3337 0.4621,-0.7002 0.7112,-1.0999 0.3997,-0.6159 0.7005,-1.1219 0.8949,-1.5108 0.1979,-0.3887 0.2931,-0.6673 0.2931,-0.8323 0,-0.0952 -0.0549,-0.1871 -0.1686,-0.286 -0.1137,-0.0952 -0.2897,-0.1942 -0.5241,-0.2934 -0.2019,-0.0879 -0.3779,-0.1539 -0.5318,-0.2015 -0.1539,-0.044 -0.2824,-0.0734 -0.3923,-0.0808 l -0.8141,-0.0292 c -0.0916,-0.0295 -0.1869,-0.0587 -0.2897,-0.0916 -0.099,-0.0331 -0.209,-0.0623 -0.33,-0.0918 l -0.5241,0.1723 c -0.1358,-0.0439 -0.2605,-0.0771 -0.3705,-0.0989 -0.11,-0.0184 -0.22,-0.0295 -0.3263,-0.0295 -0.4291,0.0258 -0.8251,0.0624 -1.188,0.1066 l -0.2897,-0.1066 c -0.0366,-0.0292 -0.0623,-0.0842 -0.0808,-0.1686 -0.0181,-0.0805 -0.0439,-0.1905 -0.0805,-0.3263 0.0513,-0.0953 0.1137,-0.2126 0.1942,-0.3592 0.0771,-0.1468 0.1616,-0.3155 0.2568,-0.5025 0.0255,-0.099 0.044,-0.1724 0.0513,-0.2237 0.0879,-0.2492 0.231,-0.4436 0.4363,-0.5754 0.2018,-0.1321 0.4804,-0.1982 0.8288,-0.1982 0.1724,0 0.3263,0.0074 0.4655,0.0221 0.1394,0.0145 0.2678,0.0292 0.3815,0.044 l 0.1503,0.1173 c 0.1428,-0.0368 0.2602,-0.0697 0.352,-0.1026 0.0916,-0.0331 0.165,-0.0479 0.2126,-0.0479 0.4071,0.0771 0.8323,0.1616 1.2759,0.2458 0.121,0.0073 0.2715,0.0258 0.451,0.0476 0.176,0.0258 0.3815,0.0587 0.6089,0.1026 0.0989,0.0661 0.2273,0.1321 0.3812,0.2055 0.1539,0.0698 0.3337,0.1539 0.5389,0.2455 0.2715,0.1029 0.5133,0.2384 0.7189,0.4144 0.2089,0.1761 0.3702,0.3705 0.4912,0.5868 0.1174,0.1868 0.1981,0.3628 0.2494,0.5315 0.0477,0.1687 0.0732,0.3265 0.0732,0.4768 0,0.2384 -0.0292,0.4547 -0.0842,0.6562 -0.0587,0.2018 -0.1432,0.3852 -0.2568,0.5465 l -0.1392,0.4215 c -0.0147,0.055 -0.0513,0.1358 -0.1026,0.2347 -0.055,0.1027 -0.1211,0.2016 -0.1982,0.3008 -0.121,0.165 -0.2528,0.3336 -0.396,0.506 -0.0365,0.0842 -0.0989,0.1834 -0.1941,0.2971 -0.0919,0.1099 -0.2092,0.2273 -0.3521,0.348 -0.0295,0.0148 -0.0624,0.048 -0.1026,0.0956 -0.0405,0.0513 -0.0771,0.11 -0.1137,0.1831 -0.0771,0.1653 -0.1981,0.3594 -0.3631,0.5794 -0.165,0.2237 -0.3665,0.4805 -0.6086,0.7739 -0.3226,0.3738 -0.572,0.6709 -0.7554,0.8983 -0.1834,0.2273 -0.3079,0.3849 -0.3813,0.4765 -0.0845,0.0734 -0.1723,0.1468 -0.2568,0.2273 -0.0842,0.0771 -0.1794,0.1723 -0.2787,0.2786 l -0.1391,0.3229 c -0.0332,0.0916 -0.1613,0.2787 -0.3742,0.5536 -0.2126,0.275 -0.5131,0.6452 -0.8983,1.1109 -0.3776,0.4292 -0.6562,0.781 -0.8359,1.0525 -0.1798,0.275 -0.2676,0.4581 -0.2676,0.561 0,0.0476 0.0292,0.0842 0.0842,0.1063 l 0.4181,-0.0771 c 0.0989,0.0221 0.1978,0.0402 0.2897,0.055 0.1797,-0.0292 0.3557,-0.0476 0.5351,-0.055 l 0.3742,0.11 c 0.1979,-0.0661 0.3776,-0.11 0.5278,-0.1355 0.1542,-0.0258 0.286,-0.0406 0.3926,-0.0406 0.3629,0 0.7002,-0.0218 1.0157,-0.0731 0.3152,-0.0516 0.6012,-0.1321 0.8651,-0.2421 0.1432,-0.0147 0.3229,-0.0439 0.5355,-0.0918 0.2163,-0.0476 0.462,-0.1063 0.7407,-0.1794 0.0768,-0.0369 0.1576,-0.0698 0.2455,-0.0993 0.0844,-0.0292 0.1723,-0.0657 0.2678,-0.1063 0.1137,-0.0218 0.22,-0.0439 0.3263,-0.066 0.1026,-0.0218 0.1905,-0.0476 0.2602,-0.0768 z"
       style="fill:#ddddff;fill-rule:evenodd;stroke:#373435;stroke-width:0.7087;stroke-linecap:butt;stroke-linejoin:round;stroke-dasharray:none"
       id="path4" />
  </g>
</svg>
