<svg xmlns="http://www.w3.org/2000/svg" version="1.1" xmlns:xlink="http://www.w3.org/1999/xlink" xmlns:svgjs="http://svgjs.com/svgjs" x="0" y="0" viewBox="0 0 128 128" style="enable-background:new 0 0 512 512" xml:space="preserve" class="">
  <g>
    <path d="M112.15,21.88a2,2,0,0,0-.45-.49,63.88,63.88,0,0,0-95.43,0,2,2,0,0,0-.43.47l0,.05a64,64,0,1,0,96.37,0Zm-2,80.41a71.55,71.55,0,0,0-14.38-6.39A101.55,101.55,0,0,0,100.64,66h23.31A59.71,59.71,0,0,1,110.15,102.3ZM4.05,66H27.36a101.55,101.55,0,0,0,4.87,29.91,71.55,71.55,0,0,0-14.38,6.39A59.71,59.71,0,0,1,4.05,66ZM18,25.55A71.76,71.76,0,0,0,32.3,31.89,101.43,101.43,0,0,0,27.36,62H4.05A59.71,59.71,0,0,1,18,25.55ZM66,36.64A105.35,105.35,0,0,0,92,33a99,99,0,0,1,4.68,29H66Zm0-4V4.12C76.14,5.25,85,14.91,90.6,29.23A101.46,101.46,0,0,1,66,32.64Zm-4,0a101.45,101.45,0,0,1-24.6-3.41C43,14.91,51.86,5.25,62,4.12Zm0,4V62H31.36A99,99,0,0,1,36,33,105.36,105.36,0,0,0,62,36.64ZM31.36,66H62V91.14a105.32,105.32,0,0,0-26,3.66A99.16,99.16,0,0,1,31.36,66ZM62,95.14v28.74C51.82,122.74,42.88,113,37.32,98.57A101.41,101.41,0,0,1,62,95.14Zm4,0a101.42,101.42,0,0,1,24.68,3.43C85.12,113,76.18,122.74,66,123.88Zm0-4V66H96.64A99.16,99.16,0,0,1,92,94.79,105.32,105.32,0,0,0,66,91.14ZM100.64,62A101.43,101.43,0,0,0,95.7,31.89,71.76,71.76,0,0,0,110,25.55,59.71,59.71,0,0,1,123.95,62Zm6.65-39.48a68.71,68.71,0,0,1-12.94,5.6C90.66,18.64,85.54,11,79.54,6.05A60,60,0,0,1,107.29,22.52ZM48.46,6.05c-6,4.92-11.11,12.58-14.8,22.07a68.71,68.71,0,0,1-12.94-5.6A60,60,0,0,1,48.46,6.05ZM20.57,105.34a68.45,68.45,0,0,1,13-5.66c3.7,9.58,8.84,17.32,14.88,22.27A60,60,0,0,1,20.57,105.34Zm59,16.61c6-5,11.18-12.69,14.88-22.27a68.46,68.46,0,0,1,13,5.66A60,60,0,0,1,79.54,121.95Z" fill="#ddf" data-original="#ddf" class="" style="opacity:0.3">
    </path>
  </g>
</svg>