<svg viewBox="0 0 24 22" fill="none" xmlns="http://www.w3.org/2000/svg">
<path fill-rule="evenodd" clip-rule="evenodd" d="M24 11.0263C24 11.2516 23.8999 11.4793 23.6997 11.6695L13.0372 21.6174C12.7776 21.8592 12.3866 22 11.9706 22C11.5578 22 11.1637 21.8592 10.9072 21.6174L0.300949 11.7117C-0.171343 11.2704 -0.07751 10.6249 0.510509 10.2705C1.09853 9.91601 1.95866 9.98643 2.43095 10.4277L11.9738 19.3381L21.5697 10.3831C22.042 9.94183 22.9022 9.87141 23.4902 10.2259C23.8248 10.4301 24 10.7258 24 11.0263Z" fill="#E89432"/>
<path fill-rule="evenodd" clip-rule="evenodd" d="M20 0.684194C20 0.834422 19.9333 0.986216 19.7998 1.11297L12.6915 7.74492C12.5184 7.90611 12.2577 8 11.9804 8C11.7052 8 11.4424 7.90611 11.2715 7.74492L4.20063 1.14114C3.88577 0.846941 3.94833 0.4166 4.34034 0.180303C4.73235 -0.0559934 5.30578 -0.00904705 5.62064 0.28515L11.9825 6.22543L18.3798 0.255417C18.6947 -0.0387797 19.2681 -0.0857261 19.6601 0.150571C19.8832 0.286715 20 0.48389 20 0.684194Z" fill="#E89432"/>
</svg>
