<svg viewBox="0 0 30 30" fill="none" xmlns="http://www.w3.org/2000/svg">
	<g>
		<path
			d="M15 0C6.71457 0 0 6.71457 0 15C0 19.4705 1.95472 23.4862 5.06102 26.2382C7.7126 28.5768 11.1909 30 15 30C18.815 30 22.2933 28.5768 24.939 26.2323C28.0453 23.4862 30 19.4705 30 15C30 6.71457 23.2854 0 15 0Z"
			fill="#89D6F7" />
		<path
			d="M23.7638 25.0157C22.9961 24.4429 21.6024 23.4921 20.0846 22.7894C18.5669 22.0925 17.6752 20.4567 17.9173 18.8091C17.9173 18.7854 17.9232 18.7618 17.9291 18.7323C17.9291 18.7323 21.3839 16.3937 20.9055 14.1142C20.9055 14.1142 21.0118 14.1201 21.1713 14.1083C22.6949 13.9665 22.7894 11.6988 21.2835 11.4567C21.2716 11.4567 21.2539 11.4508 21.2421 11.4508L21.1949 11.2028C21.6555 9.59055 22.7776 4.70669 19.3819 5.17913C19.3819 5.17913 16.9429 1.14567 11.7874 3.08858C6.62598 5.02559 7.97244 9.64961 7.97244 9.64961L8.61023 11.4921C7.22244 11.8346 7.35236 13.9783 8.82874 14.1142C8.98819 14.126 9.10039 14.1201 9.10039 14.1201C8.61614 16.3996 12.0709 18.7382 12.0709 18.7382C12.0768 18.7677 12.0768 18.7913 12.0827 18.815C12.3189 20.4626 11.4272 22.0984 9.91535 22.7953C8.39173 23.498 7.00393 24.4547 6.23622 25.0217C5.77559 25.3583 5.36811 25.7657 5.05511 26.2441C7.7126 28.5768 11.1909 30 15 30C18.815 30 22.2933 28.5768 24.939 26.2323C24.6319 25.7598 24.2244 25.3524 23.7638 25.0157Z"
			fill="#41596B" />
	</g>
</svg>
	