<svg viewBox="0 0 15 15" fill="none" xmlns="http://www.w3.org/2000/svg">
  <g clip-path="url(#clip0_21_339)">
    <path
      d="M8.65762 3.2005L7.88741 2.65754C7.8593 2.63773 7.82757 2.62365 7.79402 2.61611C7.76047 2.60856 7.72576 2.6077 7.69188 2.61357C7.658 2.61944 7.6256 2.63193 7.59655 2.65032C7.56749 2.66872 7.54234 2.69265 7.52254 2.72077L2.72371 9.52839C2.69856 9.56413 2.68274 9.6056 2.67771 9.64902C2.67267 9.69243 2.67858 9.73642 2.6949 9.77697C2.71121 9.81751 2.73741 9.85334 2.77111 9.88117C2.80481 9.909 2.84494 9.92796 2.88784 9.93632L3.08635 9.97485C3.14706 9.98664 3.20455 10.0112 3.25498 10.047C3.30545 10.0825 3.34774 10.1284 3.37903 10.1815L3.48203 10.356C3.50518 10.3953 3.53816 10.4278 3.57771 10.4503C3.61726 10.4729 3.66202 10.4848 3.70756 10.4848C3.74951 10.4848 3.79084 10.4747 3.82807 10.4554C3.8653 10.436 3.89735 10.4081 3.92152 10.3738L8.72084 3.56545C8.76083 3.50866 8.77663 3.43832 8.76478 3.36989C8.75292 3.30146 8.71438 3.24053 8.65762 3.2005Z"
      fill="#F99841" />
    <path
      d="M10.5727 4.55048L9.80246 4.00752C9.74569 3.96753 9.67536 3.95171 9.60693 3.96356C9.53851 3.9754 9.47758 4.01393 9.43756 4.07069L4.63868 10.8783C4.6135 10.914 4.59767 10.9555 4.59263 10.9989C4.58759 11.0424 4.59349 11.0863 4.6098 11.1269C4.62612 11.1674 4.65232 11.2033 4.68602 11.2311C4.71973 11.2589 4.75986 11.2779 4.80277 11.2862L5.00128 11.3247C5.06197 11.3365 5.11945 11.3611 5.16989 11.3969C5.22038 11.4324 5.2627 11.4783 5.29399 11.5316L5.39706 11.7061C5.42021 11.7453 5.45319 11.7778 5.49273 11.8003C5.53228 11.8229 5.57702 11.8347 5.62255 11.8347C5.6645 11.8348 5.70583 11.8247 5.74307 11.8054C5.78031 11.7861 5.81237 11.7581 5.83654 11.7238L10.6359 4.91537C10.6759 4.8586 10.6917 4.78826 10.6798 4.71984C10.668 4.65141 10.6294 4.59049 10.5727 4.55048Z"
      fill="#FFD05C" />
    <path
      d="M9.72236 4.04488C9.71651 4.01099 9.70404 3.9786 9.68566 3.94954C9.66728 3.92048 9.64335 3.89532 9.61525 3.87551L8.84495 3.33255C8.81684 3.31274 8.78511 3.29865 8.75156 3.2911C8.71801 3.28355 8.6833 3.28268 8.64942 3.28855C8.61553 3.29442 8.58314 3.3069 8.55408 3.32529C8.52502 3.34367 8.49987 3.36761 8.48006 3.39572L3.6812 10.2033C3.65601 10.2391 3.64017 10.2805 3.63512 10.324C3.63006 10.3674 3.63597 10.4114 3.65228 10.4519C3.66859 10.4925 3.6948 10.5283 3.72852 10.5562C3.76223 10.584 3.80238 10.6029 3.84529 10.6113L4.04386 10.6498C4.10457 10.6616 4.16206 10.6862 4.21247 10.722C4.26295 10.7575 4.30524 10.8033 4.33648 10.8565L4.43955 11.031C4.46269 11.0702 4.49567 11.1027 4.53521 11.1252C4.57476 11.1478 4.61951 11.1597 4.66505 11.1597C4.707 11.1597 4.74834 11.1496 4.78558 11.1303C4.82283 11.111 4.85489 11.083 4.87906 11.0487L9.67841 4.2404C9.71838 4.18362 9.73418 4.1133 9.72236 4.04488Z"
      fill="#FBB85F" />
    <path
      d="M10.6836 4.85493L11.6849 3.42718C11.7249 3.37041 11.7407 3.30008 11.7289 3.23166C11.717 3.16324 11.6785 3.10233 11.6217 3.06232L8.93652 1.16939C8.90842 1.14957 8.87669 1.13549 8.84314 1.12794C8.8096 1.12039 8.77489 1.11952 8.74101 1.12539C8.70713 1.13125 8.67474 1.14373 8.64568 1.16211C8.61662 1.18049 8.59147 1.20442 8.57166 1.23252L7.56757 2.67199L10.6836 4.85493Z"
      fill="#D1D6E4" />
    <path
      d="M11.4713 0.879814C11.4195 0.843809 11.367 0.807275 11.3139 0.769805L11.1991 0.688828C11.1538 0.656865 11.1086 0.624775 11.0635 0.592559L11.0417 0.577061C10.6259 0.280283 10.233 0 9.85761 0C9.57692 0 9.33604 0.148125 9.12126 0.452783L8.54376 1.27207L11.6484 3.47903L12.2346 2.64741C12.417 2.38878 12.4861 2.15191 12.4458 1.92328C12.3727 1.50756 11.9554 1.21696 11.4713 0.879814Z"
      fill="#EF5440" />
    <path opacity="0.15"
      d="M8.04882 3.0092C8.05986 2.99496 8.0723 2.98188 8.08597 2.97015L8.08594 2.97012L9.06238 1.57028L9.06217 1.57017L9.08974 1.53105L9.09003 1.53064L9.09006 1.53062L9.6397 0.750879C9.85445 0.446221 10.0953 0.298096 10.3761 0.298096C10.5067 0.298096 10.6395 0.332578 10.7746 0.389385C10.7022 0.339698 10.6285 0.291966 10.5536 0.24624C10.5456 0.241377 10.5376 0.236484 10.5295 0.231738C10.507 0.21825 10.4842 0.205123 10.4612 0.192363C10.4492 0.185684 10.4373 0.178945 10.4254 0.172529C10.4098 0.164145 10.3941 0.15596 10.3782 0.147979C10.3654 0.141387 10.3524 0.135117 10.3395 0.128877C10.326 0.122276 10.3124 0.11583 10.2986 0.109541C10.2892 0.105293 10.2799 0.101279 10.2706 0.0972363C10.2575 0.0915636 10.2443 0.0860845 10.2311 0.0808008C10.2222 0.0772559 10.2133 0.0736816 10.2044 0.0703125C10.1891 0.0645541 10.1736 0.0590844 10.1581 0.0539063C10.1518 0.0517969 10.1454 0.0493945 10.1391 0.0474316C10.118 0.0407147 10.0968 0.0346183 10.0754 0.0291504C10.0691 0.0275391 10.0629 0.0262793 10.0567 0.0248145C10.0411 0.0210955 10.0255 0.0177644 10.0098 0.0148242C10.0023 0.013418 9.99481 0.0122168 9.98737 0.0110156C9.97232 0.00861944 9.9572 0.00660707 9.94205 0.00498047C9.93531 0.00427734 9.92857 0.00342773 9.92186 0.00287109C9.90049 0.00105518 9.87906 9.73792e-05 9.85761 0C9.57692 0 9.33604 0.148125 9.12126 0.452783L8.57163 1.23252L8.5716 1.23255L8.5713 1.23296L8.54374 1.27207L8.54394 1.27219L7.5675 2.67202L8.04882 3.0092Z"
      fill="#30302F" />
    <path
      d="M12.6432 13.6459H5.00431C4.93966 13.6452 4.8779 13.619 4.83244 13.573C4.78698 13.5271 4.76148 13.465 4.76148 13.4004C4.76148 13.3358 4.78698 13.2737 4.83244 13.2278C4.8779 13.1818 4.93966 13.1556 5.00431 13.1549H12.6432C12.6757 13.1546 12.7079 13.1606 12.738 13.1728C12.7681 13.185 12.7955 13.203 12.8185 13.2259C12.8416 13.2487 12.8599 13.2759 12.8724 13.3058C12.885 13.3358 12.8914 13.3679 12.8914 13.4004C12.8914 13.4329 12.885 13.465 12.8724 13.495C12.8599 13.5249 12.8416 13.5521 12.8185 13.5749C12.7955 13.5978 12.7681 13.6158 12.738 13.628C12.7079 13.6402 12.6757 13.6462 12.6432 13.6459ZM4.21883 13.6459H2.42061C2.38815 13.6462 2.35594 13.6402 2.32584 13.628C2.29575 13.6158 2.26836 13.5978 2.24528 13.5749C2.2222 13.5521 2.20388 13.5249 2.19137 13.495C2.17886 13.465 2.17242 13.4329 2.17242 13.4004C2.17242 13.3679 2.17886 13.3358 2.19137 13.3058C2.20388 13.2759 2.2222 13.2487 2.24528 13.2259C2.26836 13.203 2.29575 13.185 2.32584 13.1728C2.35594 13.1606 2.38815 13.1546 2.42061 13.1549H4.21883C4.25107 13.1549 4.28299 13.1613 4.31277 13.1736C4.34256 13.1859 4.36962 13.204 4.39242 13.2268C4.41521 13.2496 4.43329 13.2767 4.44563 13.3065C4.45796 13.3363 4.46431 13.3682 4.46431 13.4004C4.4643 13.4655 4.43843 13.528 4.3924 13.574C4.34636 13.62 4.28393 13.6459 4.21883 13.6459ZM12.6432 15H2.42061C2.35551 15 2.29308 14.9741 2.24704 14.9281C2.20101 14.8821 2.17515 14.8196 2.17515 14.7545C2.17515 14.6894 2.20101 14.627 2.24704 14.581C2.29308 14.5349 2.35551 14.5091 2.42061 14.5091H12.6432C12.6756 14.5087 12.7078 14.5148 12.7379 14.527C12.768 14.5391 12.7954 14.5572 12.8185 14.58C12.8416 14.6028 12.8599 14.63 12.8724 14.66C12.8849 14.6899 12.8913 14.7221 12.8913 14.7545C12.8913 14.787 12.8849 14.8191 12.8724 14.8491C12.8599 14.879 12.8416 14.9062 12.8185 14.929C12.7954 14.9519 12.7681 14.9699 12.738 14.9821C12.7079 14.9943 12.6757 15.0003 12.6432 15Z"
      fill="#D1D6E4" />
    <path
      d="M3.64639 12.5008L2.71486 11.8441C2.67448 11.8156 2.6274 11.7981 2.57822 11.7932C2.52904 11.7883 2.47943 11.7962 2.43423 11.8162C2.34224 11.8567 2.3132 11.692 2.30063 11.7917L2.11349 13.2471C2.10694 13.2987 2.11456 13.3511 2.13554 13.3987C2.15652 13.4463 2.19006 13.4873 2.23257 13.5172C2.27507 13.5472 2.32493 13.565 2.3768 13.5688C2.42867 13.5726 2.48059 13.5621 2.52698 13.5386L3.80031 12.8791C3.89002 12.8337 3.75971 12.856 3.767 12.7557C3.77059 12.7064 3.76137 12.6571 3.74024 12.6124C3.7191 12.5677 3.68677 12.5293 3.64639 12.5008Z"
      fill="#415B6B" />
    <path
      d="M5.56387 10.8144C5.40596 10.7031 5.20976 10.6583 5.01648 10.6913C4.98262 10.6972 4.9492 10.7054 4.91646 10.7159C4.90917 10.4936 4.80168 10.2772 4.60639 10.1395C4.48282 10.0522 4.33516 10.0054 4.18384 10.0057C4.14206 10.0057 4.10011 10.0093 4.05906 10.0164C4.02517 10.0223 3.99172 10.0305 3.95896 10.0409C3.95175 9.81876 3.84423 9.60226 3.64894 9.46462C3.52538 9.37721 3.37768 9.33041 3.22633 9.33071C3.18461 9.33071 3.14271 9.33431 3.10161 9.3414C2.90934 9.37468 2.74129 9.48079 2.62812 9.64061L2.59776 9.68359C2.57306 9.71863 2.55733 9.7592 2.55194 9.80174L2.28174 11.9415C2.29565 11.9491 2.30916 11.9574 2.32231 11.9666L3.69221 12.9323C3.69936 12.9294 3.70645 12.9266 3.71342 12.9231L5.61528 11.961C5.65347 11.9417 5.68635 11.9133 5.71103 11.8783L5.74185 11.8347C5.97326 11.5044 5.89346 11.0468 5.56387 10.8144Z"
      fill="#E2B186" />
    <path opacity="0.15"
      d="M2.49123 13.5413L2.67468 13.4485L3.19435 9.33226C3.16324 9.33329 3.13223 9.33634 3.10151 9.3414C2.90923 9.37468 2.74119 9.4808 2.62801 9.64061L2.59766 9.68359C2.57296 9.71864 2.55723 9.75921 2.55184 9.80174L2.28117 11.9457C2.27617 11.9853 2.28038 12.0256 2.29347 12.0634C2.27156 12.0965 2.2575 12.1342 2.25237 12.1736L2.11327 13.2749C2.10732 13.3221 2.11431 13.3699 2.13349 13.4134C2.15267 13.4569 2.18333 13.4944 2.22216 13.5217C2.26103 13.5491 2.30659 13.5653 2.35398 13.5688C2.40137 13.5723 2.44881 13.5628 2.49123 13.5413Z"
      fill="#30302F" />
  </g>
</svg>
  