<svg viewBox="0 0 15 15" fill="none" xmlns="http://www.w3.org/2000/svg">
  <g clip-path="url(#clip0_21_351)">
    <path
      d="M7.04797 14.1032H10.5365C10.7923 14.1032 10.9997 13.8959 10.9997 13.64V1.35996C10.9997 1.10414 10.7923 0.896744 10.5365 0.896744H7.04797V14.1032Z"
      fill="#FFEEE7" />
    <path
      d="M10.9996 1.36002V13.64C10.9996 13.8958 10.7922 14.1031 10.5364 14.1031H9.93542C10.1912 14.1031 10.3986 13.8957 10.3986 13.64V1.36002C10.3986 1.10426 10.1912 0.896896 9.93542 0.896896H10.5364C10.7922 0.896867 10.9996 1.10426 10.9996 1.36002Z"
      fill="#FFE2DB" />
    <path
      d="M7.38387 0.582622V14.4174C7.38387 14.7088 7.118 14.9278 6.83197 14.872L0.374531 13.6124C0.269052 13.5918 0.174008 13.5352 0.105679 13.4523C0.037351 13.3693 -8.74497e-06 13.2652 1.53542e-09 13.1577V1.84221C1.53542e-09 1.62058 0.157002 1.43 0.374531 1.38755L6.83197 0.127964C7.118 0.0721827 7.38387 0.291206 7.38387 0.582622Z"
      fill="#E19974" />
    <path
      d="M7.38393 0.582765V14.4172C7.38393 14.7087 7.11789 14.9279 6.83192 14.8719L6.55017 14.8169C6.6859 14.7371 6.77933 14.5899 6.77933 14.4172V0.582765C6.77933 0.410148 6.6859 0.262902 6.55017 0.183097L6.83192 0.128077C7.11789 0.0721496 7.38393 0.29132 7.38393 0.582765Z"
      fill="#DC8758" />
    <path
      d="M5.62418 8.57179H5.49982C5.37847 8.57179 5.28009 8.47344 5.28009 8.35206C5.28009 8.23068 5.37847 8.13233 5.49982 8.13233H5.62418C5.7624 8.13233 5.87488 8.02935 5.87488 7.90279V7.09719C5.87488 6.97062 5.76243 6.86765 5.62418 6.86765H5.49982C5.37847 6.86765 5.28009 6.7693 5.28009 6.64792C5.28009 6.52654 5.37847 6.42819 5.49982 6.42819H5.62418C6.00472 6.42819 6.31433 6.72831 6.31433 7.09719V7.90279C6.31433 8.27167 6.00472 8.57179 5.62418 8.57179Z"
      fill="#CC764C" />
    <path
      d="M8.90476 6.1134H8.56403C8.4994 6.11341 8.43741 6.13909 8.3917 6.1848C8.346 6.2305 8.32032 6.29249 8.32031 6.35713V8.64284C8.32032 8.70747 8.346 8.76946 8.3917 8.81517C8.43741 8.86087 8.4994 8.88655 8.56403 8.88656H11.6542C11.703 8.88656 11.7498 8.90595 11.7843 8.94046C11.8189 8.97498 11.8383 9.02179 11.8383 9.0706V9.74012C11.8383 9.97757 12.1169 10.1055 12.297 9.95074L14.9033 7.71064C15.0322 7.59981 15.0322 7.40021 14.9033 7.28938L12.297 5.0492C12.1169 4.89442 11.8383 5.02236 11.8383 5.25981V5.9293C11.8383 5.97811 11.8189 6.02493 11.7843 6.05944C11.7498 6.09396 11.703 6.11335 11.6542 6.11335H8.90476V6.1134Z"
      fill="#C8EFFE" />
    <path
      d="M8.32031 8.24572C8.90836 8.24455 10.7972 8.24988 11.1983 8.24988H12.0079C12.0439 8.24988 12.0797 8.25699 12.113 8.2708C12.1463 8.2846 12.1766 8.30484 12.2021 8.33036C12.2277 8.35587 12.2479 8.38617 12.2617 8.4195C12.2755 8.45284 12.2826 8.48857 12.2826 8.52466V8.73659C12.2826 8.86198 12.4298 8.92954 12.5249 8.84783L14.5897 7.07379C14.6001 7.06483 14.6098 7.05512 14.6188 7.04472L14.9033 7.28929C15.0321 7.40018 15.0321 7.59999 14.9033 7.71058L12.2972 9.95071C12.117 10.1055 11.8383 9.97752 11.8383 9.74007V9.07051C11.8383 9.02176 11.8189 8.975 11.7844 8.94052C11.7499 8.90604 11.7032 8.88668 11.6544 8.88668H8.56403C8.49939 8.88668 8.4374 8.861 8.3917 8.81529C8.34599 8.76959 8.32031 8.70759 8.32031 8.64296V8.24572Z"
      fill="#99E6FC" />
  </g>
</svg>
  