<?xml version="1.0" encoding="UTF-8"?>
<svg xmlns="http://www.w3.org/2000/svg" xml:space="preserve" width="43mm" height="10mm" version="1.1" style="shape-rendering:geometricPrecision; text-rendering:geometricPrecision; image-rendering:optimizeQuality; fill-rule:evenodd; clip-rule:evenodd"
viewBox="0 0 4300 1000"
 xmlns:xlink="http://www.w3.org/1999/xlink"
 xmlns:xodm="http://www.corel.com/coreldraw/odm/2003">
 <defs>
  <style type="text/css">
   <![CDATA[
    .str1 {stroke:#373435;stroke-width:20;stroke-linejoin:round;stroke-miterlimit:22.9256}
    .str0 {stroke:#343434;stroke-width:20;stroke-linejoin:round;stroke-miterlimit:22.9256}
    .fil0 {fill:#DDDDFF;fill-rule:nonzero}
   ]]>
  </style>
 </defs>
 <g id="Слой_x0020_1">
  <metadata id="CorelCorpID_0Corel-Layer"/>
  <g id="_1642919994832">
   <path class="fil0 str0" d="M199.07 658.18c0,-11.85 -0.82,-129.54 -0.82,-143.09l0 -71.96 166.97 1.69 -2.46 -133.63c-91.66,2.54 -146.5,7.48 -164.51,7.48l0 -129.26 180.06 -4.24 -3.27 -140.83c-85.95,4.38 -291.37,13.69 -358.49,13.69 1.64,24.56 3.28,227.9 3.28,241.44l0 112.33c0,20.32 0,201.51 -3.28,246.38l182.52 0zm495.98 -346.57c0,-101.46 2.45,-238.48 3.28,-253.72l-189.89 0c0,20.32 2.46,237.63 2.46,252.03l0 91.3c0,21.87 -0.82,219.71 -2.46,256.96l189.89 0c-0.83,-19.47 -3.28,-170.75 -3.28,-255.27l0 -91.3zm315.92 352.5c-0.81,-27.94 -1.64,-272.63 -1.64,-307.34 12.28,10.16 307.74,252.3 405.96,318.34l8.19 -4.23c2.45,-55.03 8.17,-175.26 14.73,-298.03 7.36,-123.05 14.73,-248.92 19.64,-314.96l-166.96 -5.08c-0.82,36.41 1.63,263.32 1.63,309.88 -28.64,-22.01 -291.37,-227.75 -407.59,-315.81l-8.19 5.08c-8.18,112.61 -27.83,546.11 -32.74,606.22l166.97 5.93zm777.53 -352.5c0,-101.46 2.46,-238.48 3.28,-253.72l-189.89 0c0,20.32 2.46,237.63 2.46,252.03l0 91.3c0,21.87 -0.82,219.71 -2.46,256.96l189.89 0c-0.82,-19.47 -3.28,-170.75 -3.28,-255.27l0 -91.3zm364.21 355.04c-1.64,-16.09 -4.09,-205.74 -4.09,-270.94l0 -15.24 1.64 0c53.2,80.44 202.97,280.25 216.89,298.03l144.05 -130.39c-33.56,-36.4 -150.6,-163.4 -180.07,-197.27 44.2,-48.26 142.41,-150.71 173.52,-184.58l-135.86 -123.61c-18.83,23.71 -171.07,220.14 -218.53,283.64l-1.64 0 0 -22.02c0,-73.66 3.27,-242.15 4.09,-255.69l-190.7 0c0,19.47 3.28,190.5 3.28,264.16l0 89.75c0,96.52 -2.46,239.6 -3.28,264.16l190.7 0zm824.19 -145.63c-38.46,3.39 -162.05,1.69 -183.34,1.69l0 -99.9c18.01,0 126.87,3.38 148.97,3.38l-2.46 -135.46c-36.02,3.38 -130.13,7.62 -146.51,7.62l0 -111.77c14.73,0 143.23,-4.23 173.52,-4.23l-3.28 -140.55c-30.28,2.54 -305.28,15.39 -351.11,15.39 0.82,24.55 2.45,229.3 2.45,242.85l0 113.45c0,19.33 0,199.82 -2.45,244.69 42.56,0 338.02,8.47 367.49,8.47l-3.28 -145.63z"/>
   <path class="fil0 str1" d="M3008.57 749.45c0.91,-8.8 2.07,-17.46 3.36,-26 1.3,-8.41 2.46,-16.94 3.37,-25.61 2.58,-12.03 5.82,-21.21 9.96,-27.29 4.01,-6.08 8.92,-9.06 14.74,-9.06 2.46,0 4.66,0.26 6.47,0.91 1.68,0.64 3.1,1.94 4.14,4.01l0.65 1.55c-0.39,1.55 -1.04,3.36 -1.69,5.69 -0.51,2.2 -1.29,5.04 -2.07,8.28 1.04,3.62 1.82,8.28 2.33,14.1 0.52,5.82 0.78,12.8 0.78,20.82 0,1.56 0.52,4.14 1.68,8.02 1.17,3.75 2.59,8.54 4.27,14.36 6.08,17.72 10.87,31.69 14.36,41.91 3.49,10.22 5.95,16.69 7.24,19.15 6.47,12.41 13.84,21.6 21.99,27.55 8.15,5.95 17.08,8.92 26.65,8.92 5.82,0 10.09,-0.39 12.8,-1.03 2.72,-0.52 4.14,-1.94 4.14,-3.88 -28.71,-39.58 -50.19,-74.38 -64.16,-104.65 -13.97,-30.27 -20.95,-56.27 -20.95,-78 0.13,-8.53 0.26,-16.68 0.26,-24.32 0,-2.45 -0.39,-5.95 -1.43,-10.34 -1.03,-4.53 -1.55,-7.64 -1.55,-9.71 1.3,-13.45 2.72,-25.87 4.53,-37.25 4.53,-28.84 14.1,-55.88 28.72,-80.97 14.74,-25.23 34.79,-48.64 60.27,-70.37 10.87,-9.44 20.7,-17.46 29.63,-23.93 8.92,-6.6 16.81,-11.51 23.67,-14.88 10.09,-5.3 20.31,-9.31 30.52,-12.15 10.22,-2.72 20.7,-4.14 31.57,-4.14 20.43,0 38.41,3.49 53.94,10.47 15.52,6.86 29.1,17.34 40.61,31.31 10.87,13.06 18.89,27.94 24.06,44.36 5.18,16.43 7.76,34.93 7.76,55.76 0,4.78 -0.13,10.21 -0.52,16.29 -0.38,6.08 -1.03,12.81 -1.81,20.05 -0.9,9.96 -1.68,17.85 -2.2,23.8 -0.51,5.95 -1.03,10.09 -1.55,12.68 -0.26,4.79 -1.03,10.35 -2.2,16.69 -1.29,6.33 -3.1,13.06 -5.3,20.05 -2.59,8.4 -4.66,15.65 -6.21,21.86 -1.68,6.21 -2.59,11.12 -2.84,14.61 -0.26,2.46 -1.43,6.08 -3.24,10.61 -1.94,4.53 -4.53,9.7 -7.76,15.52 -2.59,4.4 -5.04,8.8 -7.63,13.33 -2.46,4.52 -5.05,8.92 -7.5,13.32 -2.07,4.78 -4.92,10.73 -8.54,17.72 -3.62,7.11 -8.28,15 -13.84,23.54 -8.02,9.83 -17.85,22.38 -29.49,37.38 -11.52,15.01 -25.23,32.47 -41.14,52.13 -0.51,2.33 0.91,5.31 4.14,8.93 3.24,3.75 8.15,8.15 14.75,13.45 1.81,1.55 4.14,3.88 6.98,6.86 2.98,3.1 6.08,6.72 9.32,10.99 4.01,5.56 9.83,11.26 17.46,17.08 7.5,5.82 16.81,11.77 27.94,17.85 3.36,3.36 7.63,6.98 12.93,11.25 5.31,4.14 11.39,8.93 18.11,14.23 7.38,4.78 12.81,9.05 16.3,12.68 3.49,3.62 5.31,6.46 5.31,8.53l-0.39 3.75c-4.27,2.46 -8.02,5.82 -11.39,9.96 -3.23,4.14 -9.44,8.02 -18.49,11.52 -2.33,0 -5.18,-0.13 -8.54,-0.39 -3.36,-0.26 -7.37,-1.04 -11.9,-2.2 -8.41,-5.82 -15.91,-9.44 -22.51,-10.87 -6.72,-1.29 -11.77,-3.62 -15,-6.59 -3.75,-1.81 -8.15,-4.27 -13.2,-7.51 -5.04,-3.36 -10.99,-7.24 -17.85,-11.77 -7.63,-6.08 -17.07,-13.84 -28.45,-23.41 -11.26,-9.57 -24.45,-21.34 -39.33,-35.18 -2.71,-2.72 -6.98,-5.69 -12.54,-8.67 -1.94,0 -5.57,2.85 -10.87,8.54 -5.3,5.69 -26.52,10.22 -63.51,13.45 -4.01,-1.55 -8.93,-2.98 -14.75,-4.53 -5.82,-1.55 -12.55,-2.97 -20.05,-4.14 -2.33,-2.07 -4.78,-4.39 -7.37,-6.85 -2.59,-2.59 -5.82,-5.18 -9.57,-8.02 -1.81,-0.78 -3.62,-1.81 -5.56,-3.24 -1.82,-1.29 -4.4,-3.23 -7.77,-5.43 -7.24,-4.14 -13.71,-12.55 -19.27,-25.61 -5.56,-13.06 -10.61,-30.14 -15.13,-51.35 -0.91,-5.82 -1.94,-11.9 -2.98,-18.24 0,-1.81 0.52,-4.27 1.55,-7.37 1.04,-3.24 1.69,-5.57 2.2,-7.12l-1.42 -3.75zm230.5 -314.45c-16.42,0 -31.82,3.62 -46.17,10.86 -14.36,7.25 -27.81,18.11 -40.49,32.86 -12.29,13.84 -21.6,28.33 -27.94,43.33 -6.34,15.13 -9.44,31.04 -9.44,47.73 0,14.36 0.77,27.81 2.45,40.36 1.69,12.55 4.27,24.06 7.77,34.66 6.59,19.54 11.38,34.41 14.61,44.89 3.11,10.35 4.92,16.43 5.43,18.11 2.85,3.62 5.18,6.21 7.25,8.02 10.35,16.43 20.82,32.34 31.43,47.86 8.28,12.8 15.26,22.51 20.96,28.97 5.69,6.47 10.09,9.7 13.06,9.7 8.54,0 18.5,-6.59 29.62,-19.53 11.26,-13.06 23.93,-32.59 38.03,-58.72 12.81,-23.93 23.03,-45.02 30.4,-63.13 7.37,-18.11 11.9,-33.37 13.45,-45.66 2.72,-21.08 5.43,-42.68 7.89,-64.93 -1.29,-4.53 -2.46,-8.67 -3.75,-12.55 -0.78,-2.46 -1.42,-5.56 -1.94,-9.05 -0.52,-3.63 -1.29,-7.89 -2.2,-12.94 -5.56,-26.77 -15.91,-46.95 -31.04,-60.54 -15.14,-13.45 -34.93,-20.3 -59.38,-20.3zm211.88 281.72c0,-5.3 -1.29,-13.71 -3.75,-25.09 -2.59,-11.38 -3.75,-19.92 -3.75,-25.74 0,-3.23 0.26,-8.41 0.91,-15.39 0.64,-6.86 0.9,-12.03 0.9,-15.27 0,-9.31 -0.52,-23.41 -1.68,-42.3 -1.16,-18.75 -1.68,-32.85 -1.68,-42.16 0,-15.66 0.9,-35.96 2.71,-60.67 1.69,-24.84 4.27,-53.81 7.51,-87.18 1.55,-12.16 4.27,-21.35 8.15,-27.68 3.88,-6.34 9.18,-9.45 15.78,-9.45 2.2,0 4.39,1.56 6.59,4.53 2.2,3.1 4.53,7.63 6.99,13.71 5.82,5.56 11.64,10.61 17.46,15.14 4.53,4.01 7.89,9.05 10.22,14.87 2.33,5.95 3.36,13.07 3.36,21.09 0,7.37 -1.55,17.72 -4.65,31.3 -3.24,13.45 -4.79,23.67 -4.79,30.53 0,13.06 -0.39,24.18 -1.29,33.11 -0.91,8.92 -2.2,15.78 -4.01,20.7l-4.14 12.03c1.03,7.63 2.07,16.04 2.97,25.48 -0.64,14.36 -1.16,29.36 -1.42,45.01 0,15.4 1.16,31.31 3.75,47.6 2.46,16.3 5.95,32.6 10.22,49.03 6.08,22.25 13.45,38.93 22.12,50.19 8.79,11.25 18.5,16.94 29.36,16.94 5.56,0 10.61,-1.42 15.39,-4.01 4.66,-2.71 9.06,-6.72 13.33,-12.29 3.36,-4.52 6.47,-9.18 9.57,-13.97 2.97,-4.91 5.95,-9.57 9.05,-14.1 3.24,-4.01 6.86,-9.18 10.61,-15.26 3.75,-6.21 7.89,-13.58 12.42,-22.25 4.4,-15.13 9.18,-30.4 14.49,-45.79 5.3,-15.39 10.6,-30.91 15.91,-46.57 1.16,-5.04 2.84,-11.51 4.91,-19.53 1.94,-7.89 4.01,-17.07 6.08,-27.42 4.79,-12.68 9.44,-30.14 14.1,-52.65 4.66,-22.5 9.96,-49.8 15.78,-81.88 1.94,-5.04 4.4,-11.38 7.37,-19.27 2.85,-7.76 6.21,-16.94 9.96,-27.29 1.04,-3.75 2.98,-9.7 5.7,-17.72 2.84,-8.15 6.72,-18.37 11.77,-30.79 2.07,-5.95 5.69,-10.61 10.99,-13.71 5.31,-3.23 11.9,-4.79 19.79,-4.79 4.79,0 8.28,3.11 10.35,9.32 2.2,6.21 3.23,15.52 3.23,28.2 0,24.06 -2.97,53.42 -8.92,88.08 -5.95,34.8 -15.26,74.51 -27.94,119.27 -0.78,4.01 -1.94,9.05 -3.62,15.26 -1.68,6.21 -3.62,13.19 -5.95,21.08 -0.26,4.79 -0.78,10.22 -1.68,16.43 -0.91,6.21 -2.07,13.33 -3.63,21.47 -4.01,14.1 -7.37,29.24 -10.09,45.41 -2.58,16.17 -4.78,32.98 -6.2,50.44 0,2.59 -0.52,6.34 -1.43,11.39 -0.9,5.04 -2.07,11.12 -3.62,18.11 -1.42,7.11 -2.46,13.45 -2.97,19.01 -0.52,5.56 -0.78,10.74 -0.78,15.52 0.78,6.86 1.55,13.33 2.33,19.41 3.23,3.49 5.69,6.46 7.37,8.79 1.55,2.46 2.46,4.4 2.46,5.95 -1.55,4.53 -4.14,9.44 -7.76,14.75 -3.75,5.3 -8.41,10.99 -14.23,17.07 -5.95,6.86 -11.9,12.03 -17.72,15.52 -5.82,3.5 -11,5.31 -15.78,5.31 -4.53,0 -8.93,-2.85 -13.2,-8.67 -4.39,-5.69 -6.46,-11.12 -6.46,-16.17l0 -3.1c1.03,-2.59 1.94,-5.43 2.58,-8.67 0,-1.29 -0.26,-2.59 -0.9,-4.01 -0.65,-1.42 -1.17,-3.23 -1.68,-5.56 0.51,-1.16 1.29,-3.11 2.19,-5.69 1.04,-2.46 2.07,-5.44 3.11,-8.67 -0.52,-1.29 -1.04,-2.72 -1.68,-4.53 -0.65,-1.81 -1.55,-3.88 -2.85,-6.46 0.52,-1.56 1.04,-3.37 1.55,-5.44 0.39,-2.2 1.17,-4.91 2.2,-8.15 0,-2.07 -0.26,-4.65 -0.77,-7.63 0.26,-1.81 0.64,-4.4 1.16,-7.76 0.52,-3.36 1.17,-7.63 1.94,-12.67 0.91,-4.27 1.81,-7.9 2.46,-10.87 0.65,-2.85 0.9,-5.05 0.9,-6.6 0,-1.81 -0.25,-3.36 -0.9,-4.91 -0.65,-1.55 -1.55,-2.59 -2.46,-2.98 -1.55,0.39 -3.62,2.33 -6.34,5.56 -2.58,3.37 -5.56,7.89 -8.79,13.72 -4.14,6.85 -7.63,12.28 -10.48,16.42 -2.85,4.27 -4.92,7.12 -5.82,8.54l-1.55 5.3c-6.86,9.45 -12.94,17.21 -18.24,23.29 -5.31,6.21 -9.32,10.6 -12.03,13.06 -4.79,4.4 -10.61,8.28 -17.21,11.77 -6.72,3.62 -14.74,6.6 -24.05,9.19 -4.79,0.9 -9.19,2.2 -13.33,3.75 -9.57,0 -17.98,-1.3 -25.35,-3.75 -7.24,-2.59 -12.81,-6.08 -16.69,-10.61 -15.39,-17.98 -26.77,-38.03 -34.4,-60.28 -7.51,-22.25 -11.39,-46.95 -11.39,-74.25zm379.65 94.3c0,-14.23 0.52,-26.13 1.68,-35.83 1.17,-9.83 2.33,-17.46 3.88,-23.02 -0.52,-4.27 -1.16,-8.67 -1.81,-13.2 0,-5.3 0.52,-14.23 1.81,-26.51 1.3,-12.42 3.11,-28.59 5.69,-48.64 2.2,-19.14 4.14,-34.02 5.82,-44.5 1.69,-10.48 2.85,-16.94 3.63,-19.14 -0.52,-4.4 -1.04,-9.06 -1.69,-14.1 -0.64,-5.05 -1.68,-10.61 -3.23,-16.69l-8.41 -6.08 -1.81 -4.52c0.52,-7.12 0.91,-14.23 1.3,-21.35 0.38,-7.24 1.16,-14.48 2.45,-21.86 0.52,-9.05 1.68,-17.07 3.62,-23.93 1.94,-6.85 3.89,-12.67 5.83,-17.85 0.77,-1.16 1.55,-2.97 2.45,-5.3 0.91,-2.2 2.07,-4.66 3.62,-7.12 2.33,-9.18 4.53,-18.23 6.86,-27.29 2.2,-9.18 4.66,-17.98 7.24,-26.65 3.76,-8.53 9.19,-15.52 16.3,-20.82 6.99,-5.3 15.65,-8.67 25.74,-10.22 6.99,-3.75 13.07,-6.6 18.11,-8.54 5.05,-1.94 9.19,-2.84 12.16,-2.84 3.49,0 6.34,1.42 8.41,4.14 1.94,2.84 2.97,6.72 2.97,11.77 0,2.07 -1.03,9.05 -2.97,21.08 -2.07,12.03 -5.17,28.59 -9.44,49.8 -0.78,7.12 -2.07,15.52 -3.88,25.23 -1.69,9.83 -4.14,21.34 -7.12,34.79 -3.75,14.88 -7.5,31.3 -11.12,49.03 -3.75,17.85 -6.99,37.51 -10.09,58.98 -1.17,9.18 -2.59,18.11 -4.14,26.9 -1.55,8.93 -2.85,17.86 -4.14,26.91 -1.55,10.48 -2.85,20.18 -4.01,29.49 -1.03,9.19 -1.68,17.46 -1.68,24.84 0,2.71 0.26,5.43 0.65,7.89 0.38,2.59 0.51,4.91 0.51,7.24 0.52,2.85 0.39,6.47 -0.13,11 -0.64,4.52 -1.42,9.96 -2.2,16.29 -0.9,6.08 -1.81,11.65 -2.58,16.56 -0.78,4.92 -1.17,8.67 -1.17,11.13 0,12.93 0.39,23.28 1.04,31.3 0.52,8.02 1.29,13.19 2.07,15.78 1.68,6.73 3.49,14.1 5.3,21.99 0,4.27 -5.69,10.61 -17.07,19.14 -11.39,8.41 -19.66,12.68 -24.71,12.68 -2.97,0 -5.69,-1.03 -8.15,-3.23 -2.33,-2.2 -4.78,-5.31 -7.37,-9.7 -1.68,-4.01 -3.11,-7.64 -4.14,-11 -1.04,-3.23 -1.55,-6.34 -1.55,-9.05 0,-1.56 0.51,-3.88 1.55,-7.25 1.03,-3.23 1.55,-5.69 1.55,-7.11 -2.07,-7.63 -4.27,-13.97 -6.85,-19.02 -0.52,2.46 -0.78,2.07 -0.78,-1.55 0,-3.49 0,-10.22 0,-20.05zm438.89 -29.23c1.55,3.23 3.37,7.11 5.31,11.38 1.94,4.27 4.13,9.18 6.72,14.75 1.3,1.81 2.2,3.36 2.72,4.78 0.52,1.43 0.77,2.72 0.77,4.01 -15.13,7.12 -31.04,13.58 -47.6,19.41 -16.68,5.82 -34.15,11.38 -52.51,16.42 -4.79,1.3 -10.61,2.59 -17.21,4.01 -6.72,1.43 -14.36,3.24 -22.89,5.57 -6.86,2.45 -15.14,5.43 -25.1,8.92 -9.96,3.36 -21.47,6.86 -34.66,10.48 -8.28,2.2 -16.69,4.4 -25.1,6.47 -8.41,2.07 -16.81,3.88 -25.09,5.69 -10.35,2.58 -19.92,4.4 -28.59,5.69 -8.66,1.29 -16.04,1.94 -22.12,1.94 -15.91,0 -27.81,-2.98 -35.7,-9.06 -7.89,-6.08 -11.9,-15.26 -11.9,-27.29 0,-12.42 2.2,-24.19 6.6,-35.44 4.4,-11.25 11.12,-21.99 20.18,-32.08 2.58,-4.01 5.95,-8.54 10.09,-13.58 4.14,-5.18 8.92,-10.74 14.48,-17.08 3.75,-3.1 8.67,-7.76 14.75,-14.23 6.08,-6.46 13.32,-15.39 21.86,-26.77 5.82,-7.12 11.77,-14.49 17.98,-22.38 6.21,-7.76 12.16,-15.52 17.98,-23.15 2.72,-3.5 6.21,-8.15 10.35,-13.97 4.14,-5.82 8.92,-12.55 14.23,-20.05 3.23,-3.11 6.98,-6.86 11.12,-11.39 4.14,-4.52 8.67,-9.96 13.71,-16.29 7.12,-9.06 14.62,-19.54 22.51,-31.31 7.89,-11.77 16.3,-24.7 25.09,-38.8 14.1,-21.73 24.71,-39.58 31.57,-53.3 6.98,-13.71 10.34,-23.54 10.34,-29.36 0,-3.36 -1.94,-6.6 -5.95,-10.09 -4.01,-3.36 -10.22,-6.85 -18.49,-10.35 -7.12,-3.1 -13.33,-5.43 -18.76,-7.11 -5.43,-1.55 -9.96,-2.59 -13.84,-2.85l-28.72 -1.03c-3.23,-1.04 -6.59,-2.07 -10.22,-3.23 -3.49,-1.17 -7.37,-2.2 -11.64,-3.24l-18.49 6.08c-4.79,-1.55 -9.19,-2.72 -13.07,-3.49 -3.88,-0.65 -7.76,-1.04 -11.51,-1.04 -15.14,0.91 -29.11,2.2 -41.91,3.76l-10.22 -3.76c-1.29,-1.03 -2.2,-2.97 -2.85,-5.95 -0.64,-2.84 -1.55,-6.72 -2.84,-11.51 1.81,-3.36 4.01,-7.5 6.85,-12.67 2.72,-5.18 5.7,-11.13 9.06,-17.73 0.9,-3.49 1.55,-6.08 1.81,-7.89 3.1,-8.79 8.15,-15.65 15.39,-20.3 7.12,-4.66 16.95,-6.99 29.24,-6.99 6.08,0 11.51,0.26 16.42,0.78 4.92,0.51 9.45,1.03 13.46,1.55l5.3 4.14c5.04,-1.3 9.18,-2.46 12.42,-3.62 3.23,-1.17 5.82,-1.69 7.5,-1.69 14.36,2.72 29.36,5.7 45.01,8.67 4.27,0.26 9.58,0.91 15.91,1.68 6.21,0.91 13.46,2.07 21.48,3.62 3.49,2.33 8.02,4.66 13.45,7.25 5.43,2.46 11.77,5.43 19.01,8.66 9.58,3.63 18.11,8.41 25.36,14.62 7.37,6.21 13.06,13.07 17.33,20.7 4.14,6.59 6.99,12.8 8.8,18.75 1.68,5.95 2.58,11.52 2.58,16.82 0,8.41 -1.03,16.04 -2.97,23.15 -2.07,7.12 -5.05,13.59 -9.06,19.28l-4.91 14.87c-0.52,1.94 -1.81,4.79 -3.62,8.28 -1.94,3.62 -4.27,7.11 -6.99,10.61 -4.27,5.82 -8.92,11.77 -13.97,17.85 -1.29,2.97 -3.49,6.47 -6.85,10.48 -3.24,3.88 -7.38,8.02 -12.42,12.28 -1.04,0.52 -2.2,1.69 -3.62,3.37 -1.43,1.81 -2.72,3.88 -4.01,6.46 -2.72,5.83 -6.99,12.68 -12.81,20.44 -5.82,7.89 -12.93,16.95 -21.47,27.3 -11.38,13.19 -20.18,23.67 -26.65,31.69 -6.47,8.02 -10.86,13.58 -13.45,16.81 -2.98,2.59 -6.08,5.18 -9.06,8.02 -2.97,2.72 -6.33,6.08 -9.83,9.83l-4.91 11.39c-1.17,3.23 -5.69,9.83 -13.2,19.53 -7.5,9.7 -18.1,22.76 -31.69,39.19 -13.32,15.14 -23.15,27.55 -29.49,37.13 -6.34,9.7 -9.44,16.16 -9.44,19.79 0,1.68 1.03,2.97 2.97,3.75l14.75 -2.72c3.49,0.78 6.98,1.42 10.22,1.94 6.34,-1.03 12.55,-1.68 18.88,-1.94l13.2 3.88c6.98,-2.33 13.32,-3.88 18.62,-4.78 5.44,-0.91 10.09,-1.43 13.85,-1.43 12.8,0 24.7,-0.77 35.83,-2.58 11.12,-1.82 21.21,-4.66 30.52,-8.54 5.05,-0.52 11.39,-1.55 18.89,-3.24 7.63,-1.68 16.3,-3.75 26.13,-6.33 2.71,-1.3 5.56,-2.46 8.66,-3.5 2.98,-1.03 6.08,-2.32 9.45,-3.75 4.01,-0.77 7.76,-1.55 11.51,-2.33 3.62,-0.77 6.72,-1.68 9.18,-2.71z"/>
  </g>
 </g>
</svg>
