<svg viewBox="0 0 41 41" fill="none" xmlns="http://www.w3.org/2000/svg">
  <path
    d="M35.0636 26.1862C34.8055 33.1708 30.3826 37.5442 25.0936 39.3385C22.1794 40.329 19.0015 40.5412 16.1102 39.9752C12.3356 39.2356 9.05431 37.1776 7.49975 33.814C2.03287 21.9736 14.7736 17.0921 17.2862 10.2619C18.4679 7.05905 17.9631 3.14876 16.0184 0.453971C21.7263 -0.18281 27.5947 6.18436 26.4588 13.5934C26.1949 15.317 25.5639 16.9828 25.5581 18.7322C25.5409 23.4079 30.0843 24.0382 31.0766 19.922C31.4496 18.3785 31.1455 16.7384 30.8414 15.1756C33.6524 17.8703 35.2185 22.0444 35.0636 26.1862Z"
    fill="#FF8800" />
  <path
    d="M28.0708 33.6532C27.9733 36.2386 26.7744 38.1294 25.0935 39.3385C22.1794 40.329 19.0014 40.5412 16.1102 39.9752C15.1235 39.4286 14.3261 38.6311 13.8442 37.5892C11.0219 31.4793 17.6016 28.9581 18.898 25.4337C19.5061 23.7808 19.2422 21.7613 18.2384 20.3721C21.1869 20.0376 24.2158 23.3242 23.6307 27.1509C23.493 28.0449 23.166 28.9003 23.166 29.8071C23.1603 32.2189 25.5008 32.5469 26.0113 30.4181C26.2064 29.6206 26.0515 28.7781 25.8909 27.9677C27.3423 29.3634 28.1511 31.5115 28.0708 33.6532Z"
    fill="#FFD900" />
</svg>
  