<svg viewBox="0 0 30 30" fill="none" xmlns="http://www.w3.org/2000/svg">
	<path
		d="M27.5955 7.84131V6.43517C27.5955 6.00381 27.2426 5.65084 26.8112 5.65084H22.9768C22.5454 5.65084 22.1924 6.00381 22.1924 6.43517V7.84131H27.5955ZM6.22154 6.21566H3.97898C3.54761 6.21566 3.19464 6.56863 3.19464 7V7.84137H7.00581V7C7.00581 6.56857 6.6529 6.21566 6.22154 6.21566ZM21 7.84131V5.13891C21 5.13891 20.7721 4.63236 20.4935 4.63236H11.0065C10.7279 4.63236 10.5 4.86029 10.5 5.13891V7.84131L21 7.84131Z"
		fill="#D9E7EC" />
	<path
		d="M24.877 5.65089H22.9768C22.5455 5.65089 22.1925 6.00386 22.1925 6.43523V7.84136H24.0927V6.43523C24.0927 6.0038 24.4457 5.65089 24.877 5.65089ZM4.66169 6.21566L3.97898 6.21566C3.54761 6.21566 3.1947 6.56863 3.1947 7L3.19471 7.84136L3.87742 7.84136L3.87741 7C3.87741 6.56857 4.23032 6.21566 4.66169 6.21566ZM12.2289 4.63242H11.0065C10.7279 4.63242 10.5 4.86035 10.5 5.13897V7.84137H11.7223V5.13897C11.7224 4.86035 11.9503 4.63242 12.2289 4.63242Z"
		fill="#C4D2DD" />
	<path
		d="M29.2157 7.7206H0.784336C0.352969 7.7206 0 8.07351 0 8.50488V12.957H11.9743C12.8837 12.4973 13.9115 12.2381 15 12.2381C16.0885 12.2381 17.1163 12.4973 18.0257 12.957H30V8.50488C30 8.07351 29.6471 7.7206 29.2157 7.7206Z"
		fill="#E8F9FC" />
	<path
		d="M3.44783 7.7206H0.784336C0.352969 7.7206 0 8.07351 0 8.50488V12.957H2.6635V8.50488C2.6635 8.07351 3.01646 7.7206 3.44783 7.7206Z"
		fill="#D9E7EC" />
	<path
		d="M10.8595 23.5226C9.57082 22.2989 8.76721 20.5693 8.76721 18.652C8.76721 16.0315 10.2683 13.7619 12.4573 12.6553H0V23.5226H10.8595Z"
		fill="#FFB640" />
	<path d="M0 12.6553H2.6635V23.5226H0V12.6553Z" fill="#FFA90F" />
	<path
		d="M21.3536 18.652C21.3536 20.5693 20.55 22.2989 19.2613 23.5226H30V12.6553H17.6635C19.8525 13.7619 21.3536 16.0315 21.3536 18.652Z"
		fill="#FFB640" />
	<path
		d="M0 24.5834C0 25.0147 0.352969 25.3677 0.784336 25.3677H15C13.1461 25.3677 12.1317 24.6165 10.9165 23.4019H0V24.5834Z"
		fill="#E8F9FC" />
	<path
		d="M2.6635 24.5834V23.4019H0V24.5834C0 25.0147 0.352969 25.3677 0.784336 25.3677H3.44783C3.01646 25.3676 2.6635 25.0147 2.6635 24.5834Z"
		fill="#D9E7EC" />
	<path
		d="M19.3853 23.4018C18.1701 24.6164 16.8539 25.3676 15 25.3676H29.2157C29.647 25.3676 30 25.0147 30 24.5833V23.4018H19.3853Z"
		fill="#E8F9FC" />
	<path
		d="M15 25.3676C18.709 25.3676 21.7157 22.3609 21.7157 18.652C21.7157 14.943 18.709 11.9363 15 11.9363C11.2911 11.9363 8.28436 14.943 8.28436 18.652C8.28436 22.3609 11.2911 25.3676 15 25.3676Z"
		fill="#7B6C79" />
	<path
		d="M10.6618 18.652C10.6618 15.3486 13.0468 12.6024 16.1888 12.0412C15.7964 11.9712 15.3986 11.9361 15 11.9363C11.291 11.9363 8.28436 14.943 8.28436 18.652C8.28436 22.3609 11.291 25.3676 15 25.3676C15.4057 25.3676 15.8029 25.3317 16.1888 25.2628C13.0468 24.7015 10.6618 21.9553 10.6618 18.652Z"
		fill="#665E68" />
	<path
		d="M27.9659 9.2475H23.925C23.8173 9.2475 23.714 9.2903 23.6378 9.36648C23.5616 9.44266 23.5188 9.54599 23.5188 9.65373V10.7221C23.5188 10.8299 23.5616 10.9332 23.6378 11.0094C23.714 11.0856 23.8173 11.1284 23.925 11.1284H27.9659C28.0737 11.1284 28.177 11.0856 28.2532 11.0094C28.3294 10.9332 28.3722 10.8299 28.3722 10.7221V9.65373C28.3722 9.54599 28.3294 9.44266 28.2532 9.36648C28.177 9.2903 28.0737 9.2475 27.9659 9.2475Z"
		fill="#7B6C79" />
	<path
		d="M25.5107 10.7221V9.65373C25.5107 9.54599 25.5535 9.44266 25.6297 9.36648C25.7059 9.2903 25.8092 9.2475 25.9169 9.2475H23.925C23.8172 9.2475 23.7139 9.2903 23.6377 9.36648C23.5615 9.44266 23.5187 9.54599 23.5187 9.65373V10.7221C23.5187 10.8299 23.5615 10.9332 23.6377 11.0094C23.7139 11.0856 23.8172 11.1284 23.925 11.1284H25.9169C25.8092 11.1284 25.7059 11.0856 25.6297 11.0094C25.5535 10.9332 25.5107 10.8299 25.5107 10.7221Z"
		fill="#665E68" />
	<path
		d="M3.73161 10.7221V9.65373C3.73161 9.54599 3.68881 9.44266 3.61263 9.36648C3.53645 9.2903 3.43312 9.2475 3.32538 9.2475H2.20384C2.0961 9.2475 1.99277 9.2903 1.91659 9.36648C1.84041 9.44266 1.79761 9.54599 1.79761 9.65373V10.7221C1.79761 10.8299 1.84041 10.9332 1.91659 11.0094C1.99277 11.0856 2.0961 11.1284 2.20384 11.1284H3.32538C3.43312 11.1284 3.53645 11.0856 3.61263 11.0094C3.68881 10.9332 3.73161 10.8299 3.73161 10.7221Z"
		fill="#62DDFC" />
	<path
		d="M9.27311 10.6406H5.5476C5.42754 10.6406 5.3124 10.5929 5.2275 10.508C5.1426 10.4231 5.09491 10.308 5.09491 10.1879C5.09491 10.0679 5.1426 9.95272 5.2275 9.86782C5.3124 9.78292 5.42754 9.73523 5.5476 9.73523H9.27311C9.39318 9.73523 9.50832 9.78292 9.59322 9.86782C9.67811 9.95272 9.72581 10.0679 9.72581 10.1879C9.72581 10.308 9.67811 10.4231 9.59322 10.508C9.50832 10.5929 9.39318 10.6406 9.27311 10.6406Z"
		fill="#7B6C79" />
	<path
		d="M15 23.4069C17.626 23.4069 19.7549 21.278 19.7549 18.652C19.7549 16.0259 17.626 13.8971 15 13.8971C12.374 13.8971 10.2451 16.0259 10.2451 18.652C10.2451 21.278 12.374 23.4069 15 23.4069Z"
		fill="#62DDFC" />
	<path
		d="M12.6226 18.652C12.6226 16.4405 14.1402 14.5767 16.1887 14.0476C15.8004 13.9474 15.401 13.8968 15 13.8971C12.3782 13.8971 10.2451 16.0301 10.2451 18.652C10.2451 21.2738 12.3782 23.4069 15 23.4069C15.4103 23.4069 15.8087 23.3546 16.1887 23.2564C14.1402 22.7272 12.6226 20.8635 12.6226 18.652Z"
		fill="#00D2FC" />
	<path
		d="M15 21.0294C16.313 21.0294 17.3774 19.965 17.3774 18.652C17.3774 17.3389 16.313 16.2745 15 16.2745C13.687 16.2745 12.6226 17.3389 12.6226 18.652C12.6226 19.965 13.687 21.0294 15 21.0294Z"
		fill="#00D2FC" />
	<path
		d="M15 18.652C15 17.7739 15.4788 17.0061 16.1887 16.5944C15.8277 16.3846 15.4176 16.2742 15 16.2745C13.6891 16.2745 12.6226 17.3411 12.6226 18.652C12.6226 19.9629 13.6891 21.0294 15 21.0294C15.4176 21.0297 15.8277 20.9194 16.1887 20.7095C15.4788 20.2978 15 19.53 15 18.652Z"
		fill="#00C2FB" />
</svg>
	