<svg xmlns="http://www.w3.org/2000/svg" version="1.1" xmlns:xlink="http://www.w3.org/1999/xlink" xmlns:svgjs="http://svgjs.com/svgjs" viewBox="0 0 512 512" style="enable-background:new 0 0 512 512" xml:space="preserve" >
	<g>
		<path d="m70.361 58.585 8.312 23.371c.356 1.001 1.06 1.793 1.949 2.194l20.764 9.355c2.933 1.322 2.933 5.996 0 7.317l-20.764 9.355c-.889.4-1.594 1.193-1.949 2.194l-8.312 23.371c-1.174 3.302-5.327 3.302-6.501 0l-8.312-23.371c-.356-1.001-1.06-1.794-1.949-2.194l-20.764-9.355c-2.934-1.322-2.934-5.996 0-7.317l20.764-9.355c.889-.401 1.593-1.194 1.949-2.194l8.312-23.371c1.174-3.302 5.327-3.302 6.501 0zM143.347 1.837l6.165 17.336c.264.742.787 1.33 1.446 1.628l15.403 6.939c2.176.981 2.176 4.447 0 5.428l-15.403 6.939c-.66.297-1.182.885-1.446 1.628l-6.165 17.336c-.871 2.449-3.951 2.449-4.822 0l-6.165-17.336c-.264-.742-.786-1.33-1.446-1.628l-15.403-6.939c-2.176-.98-2.176-4.447 0-5.428l15.403-6.939c.66-.297 1.182-.885 1.446-1.628l6.165-17.336c.87-2.449 3.951-2.449 4.822 0z" fill="#ddf" data-original="#ddf" >
		</path>
		<circle cx="433.005" cy="24.817" r="18.149" transform="rotate(-76.7 433.127 24.81)" fill="#ddf" data-original="#ddf" >
		</circle>
		<circle cx="31.925" cy="38.6" r="7.829" transform="rotate(-80.8 31.918 38.604)" fill="#ddf" data-original="#ddf" >
		</circle>
		<path d="m475.184 99.652 6.165 17.336c.264.742.787 1.33 1.446 1.628l15.402 6.939c2.176.98 2.176 4.448 0 5.428l-15.402 6.939c-.659.297-1.182.885-1.446 1.628l-6.165 17.336c-.871 2.449-3.951 2.449-4.822 0l-6.165-17.336c-.264-.742-.786-1.33-1.446-1.628l-15.403-6.939c-2.176-.98-2.176-4.447 0-5.428l15.403-6.939c.659-.297 1.182-.885 1.446-1.628l6.165-17.336c.87-2.449 3.951-2.449 4.822 0zM433.863 213.015h-37.434l-3.176-16.217c-3.637-18.572-20.011-32.051-38.936-32.051h-15.119V145.33h19.915c17.426 0 31.603-14.178 31.603-31.604V63.849c0-17.426-14.178-31.604-31.603-31.604H219.456c-17.426 0-31.604 14.177-31.604 31.604v49.877c0 17.427 14.178 31.604 31.604 31.604h19.914v19.417h-17.345c-18.965 0-35.346 13.514-38.952 32.132l-3.126 16.136h-38.404a37.037 37.037 0 0 0-15.807-10.4v-2.853c0-19.166-15.592-34.758-34.757-34.758H72.176c-19.166 0-34.757 15.592-34.757 34.758v2.852c-14.654 4.904-25.248 18.751-25.248 35.034V475.06c0 20.369 16.571 36.94 36.94 36.94H433.863c25.918 0 47.004-21.086 47.004-47.003V260.019c0-25.918-21.086-47.004-47.004-47.004zm-225.774-99.289V63.849c0-6.268 5.1-11.367 11.367-11.367h139.656c6.268 0 11.366 5.099 11.366 11.367v49.877c0 6.268-5.099 11.367-11.366 11.367H219.456c-6.267 0-11.367-5.099-11.367-11.367zm51.518 31.604h59.354v19.417h-59.354zm-71.313 87.922c4.847 0 9.013-3.436 9.934-8.194l4.712-24.33c1.767-9.122 9.793-15.743 19.085-15.743h132.293c9.271 0 17.295 6.604 19.077 15.704l4.777 24.39a10.119 10.119 0 0 0 9.93 8.174h45.763c14.76 0 26.767 12.008 26.767 26.767v27.056h-83.874c-20.768-25.293-52.267-41.456-87.472-41.456s-66.704 16.163-87.472 41.456h-50.826V237.65c0-1.489-.099-2.954-.271-4.397h37.577zm100.99 32.603c51.233 0 92.914 41.681 92.914 92.914s-41.681 92.914-92.914 92.914-92.914-41.681-92.914-92.914 41.681-92.914 92.914-92.914zM72.176 185.242H90.98c8.007 0 14.521 6.514 14.521 14.521v.945H57.656v-.945c0-8.007 6.513-14.521 14.52-14.521zM32.407 475.06V237.648c0-9.211 7.493-16.704 16.703-16.704h64.934c9.21 0 16.704 7.493 16.704 16.704V475.06c0 9.21-7.494 16.704-16.704 16.704H49.11c-9.21-.001-16.703-7.494-16.703-16.704zm401.456 16.703H146.977a36.701 36.701 0 0 0 4.009-16.704V299.217h42.129c-10.758 17.309-16.982 37.716-16.982 59.552 0 62.391 50.759 113.151 113.151 113.151s113.151-50.759 113.151-113.151c0-21.836-6.224-42.244-16.982-59.552h75.177v165.78c0 14.759-12.008 26.766-26.767 26.766z" fill="#ddf" data-original="#ddf" >
		</path>
		<path d="M289.284 426.32c37.247 0 67.551-30.303 67.551-67.551s-30.304-67.551-67.551-67.551-67.551 30.303-67.551 67.551 30.304 67.551 67.551 67.551zm0-122.96c30.553 0 55.409 24.856 55.409 55.409s-24.856 55.409-55.409 55.409-55.409-24.856-55.409-55.409 24.856-55.409 55.409-55.409zM360.738 76.359c0-7.811-6.356-14.166-14.167-14.166H231.997c-7.811 0-14.167 6.355-14.167 14.166v24.856c0 7.812 6.356 14.167 14.167 14.167h114.574c7.811 0 14.167-6.355 14.167-14.167zm-12.142 24.856a2.027 2.027 0 0 1-2.025 2.025H231.997a2.027 2.027 0 0 1-2.025-2.025V76.359c0-1.116.908-2.024 2.025-2.024h114.574c1.117 0 2.025.908 2.025 2.024zM57.447 341.744l-.264-.003c-5.586-.143-9.999-4.787-9.856-10.373a729.638 729.638 0 0 0 0-38.747c-.142-5.586 4.27-10.231 9.856-10.374 5.549-.149 10.231 4.269 10.374 9.856a749.435 749.435 0 0 1 0 39.781c-.141 5.499-4.642 9.86-10.11 9.86zM57.442 268.062c-5.588 0-10.118-4.53-10.118-10.118v-3.786c0-5.588 4.53-10.118 10.118-10.118s10.118 4.53 10.118 10.118v3.786c.001 5.588-4.53 10.118-10.118 10.118z" fill="#ddf" data-original="#ddf" >
		</path>
		<circle cx="302.571" cy="372.021" r="18.902" transform="rotate(-45 302.526 372.105)" fill="#ddf" data-original="#ddf" >
		</circle>
	</g>
</svg>