<svg viewBox="0 0 30 30" fill="none" xmlns="http://www.w3.org/2000/svg">
  <g clip-path="url(#clip0_22_383)">
    <path
      d="M27.5967 18.8109H22.4033C21.076 18.8109 20.0001 19.8869 20.0001 21.2142V29.359H30V21.2142C30 19.8868 28.924 18.8109 27.5967 18.8109Z"
      fill="#FE646F" />
    <path
      d="M24.7892 18.8111C23.4618 18.8111 22.3861 19.8868 22.3861 21.2142V29.359H16.7011L20 21.2142C20 19.8868 21.0756 18.8111 22.403 18.8111H24.7892Z"
      fill="#FD4755" />
    <path
      d="M24.9846 26.349C24.1186 26.349 23.3754 25.703 23.2558 24.8463C23.2446 24.7658 23.2389 24.6846 23.239 24.6034C23.239 24.4833 23.2867 24.3682 23.3716 24.2833C23.4565 24.1983 23.5716 24.1506 23.6917 24.1506C23.8118 24.1506 23.9269 24.1983 24.0119 24.2833C24.0968 24.3682 24.1445 24.4833 24.1445 24.6034C24.1445 24.6429 24.1472 24.6824 24.1526 24.7209C24.2101 25.133 24.5678 25.4436 24.9846 25.4436C25.4479 25.4436 25.8248 25.0667 25.8248 24.6034C25.8248 24.1401 25.4478 23.7632 24.9846 23.7632C24.7345 23.7632 24.5318 23.5605 24.5318 23.3105C24.5318 23.0604 24.7345 22.8577 24.9846 22.8577C25.4479 22.8577 25.8248 22.4808 25.8248 22.0175C25.8248 21.5543 25.4478 21.1774 24.9846 21.1774C24.5839 21.1774 24.2372 21.4621 24.1602 21.8542C24.1364 21.9714 24.0672 22.0744 23.9677 22.1407C23.8683 22.207 23.7466 22.2313 23.6293 22.2083C23.512 22.1852 23.4086 22.1167 23.3416 22.0177C23.2746 21.9187 23.2495 21.7972 23.2717 21.6797C23.4318 20.8641 24.1522 20.272 24.9845 20.272C25.9471 20.272 26.7301 21.055 26.7301 22.0175C26.7301 22.5296 26.5085 22.9908 26.1562 23.3104C26.5085 23.63 26.7301 24.0912 26.7301 24.6033C26.7302 25.566 25.9472 26.349 24.9846 26.349Z"
      fill="#3E5959" />
    <path
      d="M7.59668 16.2845H2.40328C1.07602 16.2845 0 17.3605 0 18.6878V29.359H11.523L9.99996 18.6878C10 17.3605 8.924 16.2845 7.59668 16.2845Z"
      fill="#DEECF1" />
    <path
      d="M4.78922 16.2843C3.46184 16.2843 2.38617 17.3606 2.38617 18.688V29.359H0V18.688C0 17.3606 1.07631 16.2843 2.40305 16.2843H4.78922Z"
      fill="#CBE5E8" />
    <path
      d="M17.5967 12.5444H12.4033C11.076 12.5444 10 13.6204 10 14.9477V29.359H20.0001V14.9477C20 13.6203 18.924 12.5444 17.5967 12.5444Z"
      fill="#FFE177" />
    <path
      d="M14.7898 12.544C13.4624 12.544 12.3861 13.6203 12.3861 14.9477V29.3588H9.99997V14.9477C9.99997 13.6203 11.0763 12.544 12.4037 12.544H14.7898Z"
      fill="#FEC165" />
    <path
      d="M15.5399 20.4652C15.4805 20.4652 15.4216 20.4535 15.3667 20.4308C15.3117 20.408 15.2618 20.3747 15.2198 20.3326C15.1777 20.2906 15.1444 20.2407 15.1216 20.1857C15.0989 20.1308 15.0872 20.0719 15.0872 20.0125V15.4125H14.46C14.3399 15.4125 14.2248 15.3648 14.1399 15.2799C14.055 15.195 14.0073 15.0798 14.0073 14.9598C14.0073 14.8397 14.055 14.7246 14.1399 14.6396C14.2248 14.5547 14.3399 14.507 14.46 14.507H15.5399C15.5994 14.507 15.6583 14.5187 15.7132 14.5415C15.7682 14.5642 15.8181 14.5976 15.8601 14.6396C15.9022 14.6817 15.9355 14.7316 15.9583 14.7865C15.981 14.8415 15.9927 14.9003 15.9927 14.9598V20.0125C15.9927 20.072 15.981 20.1308 15.9582 20.1858C15.9355 20.2407 15.9021 20.2906 15.8601 20.3326C15.818 20.3747 15.7681 20.408 15.7132 20.4308C15.6583 20.4535 15.5994 20.4652 15.5399 20.4652ZM4.77265 23.9812C3.80122 23.9812 3.73026 23.9575 3.66991 23.9374C3.51815 23.8869 3.40495 23.7724 3.35913 23.6234C3.27968 23.365 3.39493 23.214 3.70302 22.8106C3.96007 22.4739 4.43872 21.8474 5.24057 20.7016C5.48157 20.3573 5.63696 20.0483 5.7027 19.7827L5.72052 19.643C5.70686 19.1917 5.33538 18.8286 4.88075 18.8286C4.48009 18.8286 4.13339 19.1133 4.05639 19.5054C4.04498 19.5638 4.02217 19.6193 3.98927 19.6689C3.95637 19.7184 3.91403 19.761 3.86466 19.7941C3.8153 19.8273 3.75988 19.8504 3.70158 19.8621C3.64328 19.8739 3.58324 19.874 3.52489 19.8625C3.40707 19.8393 3.30326 19.7703 3.23631 19.6706C3.16936 19.571 3.14474 19.4488 3.16788 19.331C3.32802 18.5152 4.04837 17.9232 4.88069 17.9232C5.84327 17.9232 6.62632 18.7062 6.62632 19.6688C6.62632 19.688 6.62509 19.7072 6.62268 19.7262L6.59766 19.9217C6.59576 19.9368 6.59306 19.9518 6.58958 19.9666C6.50063 20.3502 6.29632 20.7722 5.98231 21.2208C5.35659 22.1149 4.92452 22.6978 4.6397 23.0747C5.12602 23.0754 5.7746 23.0708 6.3821 23.0631H6.3879C6.50696 23.0631 6.62123 23.1101 6.70593 23.1937C6.79063 23.2774 6.83895 23.3911 6.84042 23.5102C6.84117 23.5696 6.8302 23.6286 6.80814 23.6838C6.78608 23.739 6.75337 23.7894 6.71186 23.8319C6.67035 23.8745 6.62086 23.9085 6.56622 23.9319C6.51158 23.9553 6.45286 23.9678 6.39341 23.9685C5.67739 23.9775 5.1552 23.9812 4.77265 23.9812Z"
      fill="#3E5959" />
    <path
      d="M15.8887 2.20423L16.4364 3.31394C16.5075 3.45803 16.6126 3.58267 16.7426 3.67712C16.8726 3.77157 17.0236 3.833 17.1827 3.85611L18.4073 4.03406C19.2203 4.15218 19.5448 5.15115 18.9566 5.72454L18.0704 6.58833C17.9553 6.7005 17.8693 6.83896 17.8196 6.99178C17.77 7.14461 17.7582 7.30722 17.7854 7.4656L17.9945 8.68529C18.1334 9.49493 17.2836 10.1123 16.5565 9.73007L15.4612 9.15421C15.319 9.07943 15.1607 9.04035 15 9.04035C14.8393 9.04035 14.681 9.07943 14.5388 9.15421L13.4434 9.73007C12.7164 10.1123 11.8666 9.49493 12.0054 8.68529L12.2146 7.4656C12.2418 7.30722 12.23 7.14461 12.1804 6.99178C12.1307 6.83896 12.0446 6.7005 11.9296 6.58833L11.0434 5.7246C10.4552 5.1512 10.7798 4.15224 11.5926 4.03411L12.8173 3.85616C12.9763 3.83304 13.1273 3.77162 13.2573 3.67717C13.3873 3.58272 13.4924 3.45808 13.5636 3.314L14.1112 2.20429C14.4748 1.46765 15.5252 1.46765 15.8887 2.20423Z"
      fill="#FFE177" />
    <path
      d="M15.7445 1.9875C15.674 2.06444 15.6149 2.15103 15.5688 2.24466L14.9809 3.43564C14.9046 3.59038 14.7918 3.72425 14.6523 3.82573C14.5127 3.92721 14.3506 3.99326 14.1799 4.01818L12.8651 4.2089C11.9923 4.3357 11.644 5.40832 12.2754 6.02343L13.2267 6.95062C13.3503 7.07098 13.4427 7.2196 13.496 7.38366C13.5494 7.54771 13.562 7.72227 13.5328 7.89228L13.3082 9.20214C13.2732 9.40558 13.2967 9.59753 13.3631 9.76716C12.6551 10.0672 11.8709 9.46535 12.0056 8.68546L12.2144 7.46548C12.2416 7.30714 12.2298 7.14457 12.1802 6.99177C12.1305 6.83898 12.0445 6.70054 11.9295 6.58839L11.0434 5.72461C10.4549 5.15115 10.7796 4.15212 11.5927 4.03382L12.8175 3.85576C12.9765 3.83275 13.1275 3.77137 13.2575 3.67693C13.3875 3.58249 13.4926 3.45783 13.5636 3.31371L14.1111 2.20423C14.4346 1.54869 15.3021 1.47621 15.7445 1.9875Z"
      fill="#FEC165" />
    <path
      d="M21.8537 3.06475L21.9289 3.195C22.194 3.65437 22.7696 3.83004 23.2461 3.59695L24.7116 2.88C25.2366 2.62318 25.4342 1.97555 25.1421 1.46941L24.9553 1.14574C24.6631 0.639609 24.0035 0.486737 23.5185 0.81287L22.1646 1.72324C21.7244 2.01914 21.5886 2.60537 21.8537 3.06475ZM22.8121 6.75416V6.90457C22.812 7.43496 23.2226 7.87488 23.7518 7.91121L25.3795 8.02307C25.9625 8.06314 26.4575 7.60107 26.4575 7.01666L26.4576 6.64295C26.4577 6.05859 25.9628 5.59635 25.3798 5.63625L23.7521 5.74769C23.2229 5.78396 22.8121 6.22377 22.8121 6.75416ZM21.9348 10.4658L21.8596 10.596C21.5943 11.0554 21.73 11.6416 22.1701 11.9377L23.5238 12.8484C24.0086 13.1746 24.6683 13.0219 24.9606 12.5159L25.1475 12.1923C25.4398 11.6862 25.2423 11.0385 24.7174 10.7816L23.2521 10.0643C22.7757 9.83098 22.2001 10.0065 21.9348 10.4658Z"
      fill="#FFE177" />
    <path
      d="M8.14628 3.06474L8.0711 3.195C7.80596 3.65437 7.2304 3.83004 6.75391 3.59695L5.28842 2.87994C4.76348 2.62312 4.56585 1.97549 4.85799 1.46935L5.04479 1.14568C5.33694 0.639548 5.99659 0.486676 6.48157 0.812809L7.83549 1.72318C8.27559 2.01914 8.41141 2.60537 8.14628 3.06474ZM7.18792 6.75416V6.90457C7.18798 7.43496 6.77735 7.87488 6.24819 7.91121L4.62051 8.02306C4.03751 8.06314 3.54251 7.60107 3.54245 7.01666L3.54239 6.64295C3.54233 6.05859 4.03721 5.59634 4.62022 5.63625L6.2479 5.74769C6.77712 5.78396 7.18786 6.22377 7.18792 6.75416ZM8.06518 10.4658L8.14042 10.596C8.40567 11.0553 8.26997 11.6416 7.82993 11.9377L6.47624 12.8484C5.99137 13.1746 5.33167 13.0219 5.0394 12.5159L4.85249 12.1923C4.56022 11.6862 4.75768 11.0385 5.28256 10.7816L6.74794 10.0643C7.2243 9.83097 7.79993 10.0065 8.06518 10.4658Z"
      fill="#FFE177" />
  </g>
</svg>
  