<svg xmlns="http://www.w3.org/2000/svg" version="1.1" xmlns:xlink="http://www.w3.org/1999/xlink"
  xmlns:svgjs="http://svgjs.com/svgjs" viewBox="0 0 512 512"
  style="enable-background:new 0 0 512 512" xml:space="preserve" class="">
  <g>
    <path d="M36.782 142.419c12.152-13.258 24.886-25.188 38.907-36.264 1.649-1.302 4.023.257 3.471 2.284-7.859 28.885-21.59 57.431-42.757 78.652-.951-14.856-.965-29.836.379-44.672zM36.404 187.102c-12.221-14.748-22.723-29.996-32.185-46.458-1.082-1.882-3.96-1.211-4.07.958-1.707 33.721 11.177 73.177 42.567 89.091-3.128-14.34-5.382-28.933-6.312-43.591z" style="" fill="#ff901d" data-original="#ff901d"></path>
    <path d="M42.714 230.682c7.691-15.825 16.3-30.548 26.391-44.819 1.197-1.693 3.882-.917 3.969 1.155 1.229 29.129-3.769 59.921-17.726 85.491-5.174-13.61-9.538-27.59-12.634-41.827zM55.351 272.519c-15.869-10.199-30.365-21.35-44.27-33.876-1.604-1.445-4.12.064-3.577 2.153 8.377 32.209 32.333 65.262 66.439 71.1-7.09-12.66-13.441-25.801-18.592-39.377z" style="" fill="#ff901d" data-original="#ff901d"></path>
    <path d="M73.937 311.887c2.78-17.264 6.756-33.733 12.291-50.198.658-1.958 3.439-1.996 4.129-.048 9.68 27.328 13.601 58.159 7.761 86.493-8.878-11.49-17.091-23.565-24.181-36.247zM98.124 348.143c-18.089-5.125-35.179-11.534-52.104-19.39-1.955-.908-3.915 1.268-2.788 3.105 17.402 28.379 49.982 52.949 84.297 48.715-10.534-10.092-20.488-20.873-29.405-32.43z" style="" fill="#ff901d" data-original="#ff901d"></path>
    <path d="M127.521 380.566c-2.468-17.394-3.517-34.359-3.032-51.798.057-2.067 2.709-2.914 3.937-1.25 17.332 23.498 30.262 52.042 33.356 80.981-12.052-8.47-23.624-17.728-34.261-27.933zM475.218 142.419c-12.152-13.258-24.886-25.188-38.907-36.264-1.649-1.302-4.023.257-3.471 2.284 7.859 28.885 21.59 57.431 42.757 78.652.951-14.856.965-29.836-.379-44.672zM475.596 187.102c12.221-14.748 22.723-29.996 32.185-46.458 1.082-1.882 3.96-1.211 4.07.958 1.707 33.721-11.177 73.177-42.567 89.091 3.128-14.34 5.382-28.933 6.312-43.591z" style="" fill="#ff901d" data-original="#ff901d"></path>
    <path d="M469.286 230.682c-7.691-15.825-16.3-30.548-26.391-44.819-1.197-1.693-3.882-.917-3.969 1.155-1.229 29.129 3.769 59.921 17.726 85.491 5.174-13.61 9.538-27.59 12.634-41.827zM456.649 272.519c15.869-10.199 30.365-21.35 44.27-33.876 1.604-1.445 4.12.064 3.577 2.153-8.377 32.209-32.333 65.262-66.439 71.1 7.09-12.66 13.441-25.801 18.592-39.377z" style="" fill="#ff901d" data-original="#ff901d"></path>
    <path d="M438.063 311.887c-2.78-17.264-6.756-33.733-12.291-50.198-.658-1.958-3.439-1.996-4.129-.048-9.68 27.328-13.601 58.159-7.761 86.493 8.878-11.49 17.091-23.565 24.181-36.247zM413.876 348.143c18.089-5.125 35.179-11.534 52.104-19.39 1.955-.908 3.915 1.268 2.788 3.105-17.402 28.379-49.982 52.949-84.297 48.715 10.534-10.092 20.488-20.873 29.405-32.43z" style="" fill="#ff901d" data-original="#ff901d"></path>
    <path d="M384.479 380.566c2.468-17.394 3.517-34.359 3.032-51.798-.057-2.067-2.709-2.914-3.937-1.25-17.332 23.498-30.262 52.042-33.356 80.981 12.052-8.47 23.624-17.728 34.261-27.933z" style="" fill="#ff901d" data-original="#ff901d"></path>
    <path d="M204.103 424.371c-13.849-6.829-26.508-14.259-37.627-22.081l-.008-.005-.005-.004c-12.409-8.72-23.597-17.839-33.257-27.106l-.006-.007c-10.843-10.386-20.451-20.98-28.559-31.489l-.007-.009-.002-.003c-9.146-11.838-17.049-23.681-23.489-35.203l-.01-.017c-7.304-13.047-13.377-25.906-18.049-38.222l-.006-.013v-.001c-5.336-14.041-9.465-27.707-12.274-40.619l-.001-.004c-3.225-14.785-5.288-29.022-6.131-42.313l-.002-.019c-.98-15.307-.858-29.897.363-43.364.015-.163.015-.325.019-.487 1.612-20.825 5.467-41.7 11.477-62.057a7.727 7.727 0 0 0-5.224-9.598 7.725 7.725 0 0 0-9.598 5.224c-6.381 21.615-10.46 43.794-12.123 65.921-.011.151-.008.299-.011.448-1.222 14.022-1.337 29.12-.326 44.903v.008c.892 14.055 3.061 29.055 6.448 44.586.003.012.004.025.006.037 2.971 13.66 7.321 28.069 12.93 42.824l.002.006c4.943 13.028 11.341 26.585 19.017 40.294l.003.006.008.013.001.001c6.811 12.18 15.134 24.66 24.74 37.094l.011.013c8.571 11.107 18.69 22.271 30.077 33.18l.008.009c10.225 9.811 22.028 19.436 35.082 28.609l.005.003c11.768 8.281 25.12 16.121 39.683 23.303 1.1.542 2.265.799 3.412.799a7.728 7.728 0 0 0 3.423-14.66zM482.427 143.343c-.003-.149 0-.296-.011-.446-1.663-22.131-5.742-44.311-12.123-65.922a7.727 7.727 0 0 0-14.822 4.376c6.009 20.352 9.864 41.226 11.477 62.053.005.163.005.326.02.49 1.221 13.462 1.343 28.053.363 43.366v.008l-.001.008c-.843 13.285-2.906 27.521-6.132 42.313l-.001.004c-2.807 12.912-6.937 26.578-12.274 40.618l-.002.005-.005.01c-4.671 12.315-10.746 25.178-18.056 38.235l-.003.004c-6.439 11.519-14.342 23.362-23.49 35.203l-.006.009-.002.002c-8.105 10.505-17.715 21.099-28.559 31.489l-.006.007c-9.656 9.264-20.846 18.384-33.258 27.106l-.01.008-.003.001c-11.119 7.824-23.778 15.253-37.627 22.081a7.725 7.725 0 0 0-3.513 10.347 7.724 7.724 0 0 0 10.347 3.513c14.561-7.18 27.911-15.019 39.679-23.299l.012-.007c13.056-9.176 24.859-18.801 35.081-28.609l.008-.009c11.392-10.916 21.514-22.082 30.083-33.188l.002-.002.003-.003c9.611-12.442 17.939-24.927 24.749-37.108l.012-.024c7.674-13.708 14.069-27.259 19.006-40.275l.001-.003.001-.003c5.606-14.747 9.953-29.147 12.924-42.801l.003-.008c3.393-15.557 5.566-30.575 6.458-44.639v-.031c1.011-15.78.896-30.87-.325-44.879z" style="" fill="#f7bc14" data-original="#f7bc14"></path>
    <path d="M212.092 296.012c-22.276.001-43.988-7.892-61.265-22.594-21.314-18.138-33.539-44.588-33.539-72.567v-26.128c0-3.02 1.178-5.86 3.316-7.993a11.213 11.213 0 0 1 7.969-3.295h.03l68.408.15a7.727 7.727 0 0 1-.016 15.454h-.018l-64.235-.141-.001 21.952c0 23.44 10.242 45.6 28.1 60.797 17.721 15.08 41.018 21.603 63.905 17.89.794-.129 1.593-.264 2.4-.405a7.727 7.727 0 0 1 2.666 15.222c-.871.152-1.736.299-2.593.438a94.411 94.411 0 0 1-15.127 1.22zM299.908 296.012c-5.03 0-10.086-.402-15.128-1.219-.857-.139-1.722-.286-2.593-.438a7.727 7.727 0 1 1 2.666-15.222c.806.142 1.606.277 2.4.405 22.892 3.71 46.184-2.81 63.905-17.89a79.71 79.71 0 0 0 28.1-60.797v-21.952l-64.235.141h-.018a7.726 7.726 0 0 1-7.726-7.71 7.726 7.726 0 0 1 7.71-7.744l68.411-.15h.03a11.21 11.21 0 0 1 7.967 3.295 11.218 11.218 0 0 1 3.316 7.993v26.128c0 27.979-12.224 54.429-33.539 72.567-17.277 14.7-38.991 22.593-61.266 22.593z" style="" fill="#ffb125" data-original="#ffb125" class=""></path>
    <path d="M205.195 407.993h101.609c-42.089-53.374-37.697-130.296-37.697-130.296h-26.214c0 .001 4.392 76.923-37.698 130.296z" style="" fill="#fed130" data-original="#fed130"></path>
    <path d="M269.107 277.698h-26.214s.68 11.943-1.069 29.681c-3.334 33.811 5.053 67.919 24.841 95.536 1.228 1.714 2.5 3.408 3.817 5.078h36.323c-42.09-53.373-37.698-130.295-37.698-130.295z" style="" fill="#f7bc14" data-original="#f7bc14"></path>
    <path d="M179.353 141.293v67.411c0 39.882 18.955 77.39 51.064 101.046 15.214 11.208 35.952 11.208 51.166 0a125.507 125.507 0 0 0 51.064-101.046v-67.411H179.353z" style="" fill="#fed130" data-original="#fed130"></path>
    <path d="M296.152 141.293v67.411c0 39.882-18.955 77.39-51.064 101.046a43.118 43.118 0 0 1-7.336 4.356c14.098 6.587 30.945 5.137 43.83-4.356a125.507 125.507 0 0 0 51.064-101.046v-67.411h-36.494z" style="" fill="#f7bc14" data-original="#f7bc14"></path>
    <path d="M338.138 151.823H173.862a4.483 4.483 0 0 1-4.483-4.483v-18.578a4.483 4.483 0 0 1 4.483-4.483h164.276a4.483 4.483 0 0 1 4.483 4.483v18.578a4.484 4.484 0 0 1-4.483 4.483z" style="" fill="#ffb125" data-original="#ffb125" class=""></path>
    <path d="M338.138 124.28h-32.012v27.543h32.012a4.482 4.482 0 0 0 4.482-4.483v-18.578a4.482 4.482 0 0 0-4.482-4.482z" style="" fill="#ff901d" data-original="#ff901d"></path>
    <path d="M343.164 440.569h-173.64c-2.517 0-4.264-2.507-3.392-4.868l12.895-34.94a3.615 3.615 0 0 1 3.392-2.364h147.85c1.514 0 2.868.943 3.392 2.364l12.895 34.94c.872 2.361-.875 4.868-3.392 4.868z" style="" fill="#ffb125" data-original="#ffb125" class=""></path>
    <path d="m346.557 435.701-12.895-34.94a3.616 3.616 0 0 0-3.393-2.364h-35.266l15.564 42.172h32.597c2.517 0 4.264-2.507 3.393-4.868z" style="" fill="#ff901d" data-original="#ff901d"></path>
  </g>
</svg>