<svg xmlns="http://www.w3.org/2000/svg" version="1.1" xmlns:xlink="http://www.w3.org/1999/xlink" xmlns:svgjs="http://svgjs.com/svgjs" x="0" y="0" viewBox="8 0 44 60" style="enable-background:new 0 0 512 512" xml:space="preserve" class=""><g>
<g>
	<path d="M30,26c3.86,0,7-3.141,7-7s-3.14-7-7-7s-7,3.141-7,7S26.14,26,30,26z M30,14c2.757,0,5,2.243,5,5s-2.243,5-5,5
		s-5-2.243-5-5S27.243,14,30,14z" fill="#E89432" data-original="#ddf" class=""></path>
	<path d="M29.823,54.757L45.164,32.6c5.754-7.671,4.922-20.28-1.781-26.982C39.761,1.995,34.945,0,29.823,0
		s-9.938,1.995-13.56,5.617c-6.703,6.702-7.535,19.311-1.804,26.952L29.823,54.757z M17.677,7.031C20.922,3.787,25.235,2,29.823,2
		s8.901,1.787,12.146,5.031c6.05,6.049,6.795,17.437,1.573,24.399L29.823,51.243L16.082,31.4
		C10.882,24.468,11.628,13.08,17.677,7.031z" fill="#E89432" data-original="#ddf" class=""></path>
</g>
</g>
</svg>
