<svg width="24" height="30" viewBox="0 0 24 30" fill="none" xmlns="http://www.w3.org/2000/svg">
<path fill-rule="evenodd" clip-rule="evenodd" d="M11.52 29.8475L12 29.1667L11.52 29.8475ZM12.48 29.8475L12.4833 29.8458L12.4917 29.84L12.5167 29.8208L12.615 29.75C12.6983 29.6883 12.82 29.5983 12.9733 29.48C13.28 29.245 13.715 28.8992 14.2342 28.455C15.597 27.2901 16.8714 26.0255 18.0467 24.6717C20.8034 21.4833 23.6667 16.9325 23.6667 11.73C23.6667 8.62167 22.4384 5.63833 20.2517 3.43833C19.1709 2.34949 17.8854 1.48515 16.4692 0.895063C15.0531 0.304972 13.5342 0.000781947 12 0C10.4659 0.000672787 8.94704 0.304732 7.53089 0.894678C6.11473 1.48462 4.82922 2.34881 3.74834 3.4375C1.55953 5.64253 0.331874 8.6239 0.333345 11.7308C0.333345 16.9325 3.19668 21.4833 5.95335 24.6717C7.12866 26.0255 8.403 27.2901 9.76585 28.455C10.2858 28.8992 10.72 29.245 11.0267 29.48C11.1771 29.5959 11.3291 29.7098 11.4825 29.8217L11.5092 29.84L11.5167 29.8458L11.52 29.8475C11.8075 30.05 12.1925 30.05 12.48 29.8475ZM12 29.1667L12.48 29.8475L12 29.1667ZM16.1667 11.6667C16.1667 12.7717 15.7277 13.8315 14.9463 14.6129C14.1649 15.3943 13.1051 15.8333 12 15.8333C10.8949 15.8333 9.83514 15.3943 9.05373 14.6129C8.27233 13.8315 7.83335 12.7717 7.83335 11.6667C7.83335 10.5616 8.27233 9.50179 9.05373 8.72039C9.83514 7.93899 10.8949 7.5 12 7.5C13.1051 7.5 14.1649 7.93899 14.9463 8.72039C15.7277 9.50179 16.1667 10.5616 16.1667 11.6667Z" fill="#E89432"/>
</svg>
