<svg viewBox="0 0 30 30" fill="none" xmlns="http://www.w3.org/2000/svg">
	<g clip-path="url(#clip0_22_360)">
		<path
			d="M11.1937 19.5673C11.1351 19.5673 11.0767 19.5639 11.0187 19.557C10.4936 19.4943 10.0757 19.1705 9.84213 18.6454C9.81836 18.5919 9.80535 18.5343 9.80384 18.4758C9.80233 18.4174 9.81235 18.3592 9.83334 18.3046C9.85433 18.25 9.88586 18.2001 9.92615 18.1576C9.96644 18.1152 10.0147 18.0812 10.0681 18.0574C10.1761 18.0095 10.2986 18.0063 10.4089 18.0487C10.5191 18.0911 10.6081 18.1755 10.6561 18.2834C10.76 18.5169 10.9175 18.6478 11.1243 18.6724C11.3673 18.7013 11.6554 18.5783 11.8085 18.3795C11.9489 18.1971 11.9997 17.9411 11.941 17.7114C11.9035 17.5648 11.8044 17.366 11.5453 17.2521C10.7735 16.9128 9.8944 17.2379 8.87645 17.6142C7.03279 18.2959 4.73813 19.1442 2.18707 16.111L1.13056 14.8548C1.02556 14.7307 0.946281 14.5869 0.897315 14.4319C0.848349 14.2769 0.830676 14.1137 0.845322 13.9518C0.859058 13.7898 0.90484 13.6321 0.980008 13.488C1.05518 13.3439 1.15823 13.2161 1.28319 13.1122C1.62206 12.8286 2.02457 12.6314 2.45628 12.5374C2.88798 12.4434 3.33605 12.4553 3.76213 12.5722L4.2808 12.7146C4.41671 12.7519 4.55963 12.7556 4.69729 12.7254C4.83495 12.6953 4.96322 12.6321 5.07106 12.5414L6.47831 11.3577C6.56888 11.2831 6.68526 11.2472 6.80214 11.2579C6.91903 11.2685 7.02698 11.3249 7.10253 11.4147C7.17808 11.5046 7.21512 11.6206 7.20561 11.7376C7.19609 11.8545 7.14079 11.963 7.05171 12.0395L5.6444 13.2231C5.4261 13.4067 5.16648 13.5345 4.88788 13.5955C4.60927 13.6565 4.32001 13.649 4.04496 13.5735L3.52635 13.4311C3.23904 13.3523 2.93692 13.3443 2.64583 13.4077C2.35474 13.4711 2.08334 13.6041 1.85484 13.7952C1.81998 13.8242 1.79123 13.8599 1.77027 13.9001C1.74931 13.9403 1.73655 13.9843 1.73273 14.0294C1.72863 14.0746 1.73355 14.1202 1.7472 14.1634C1.76085 14.2067 1.78296 14.2468 1.81224 14.2814L2.86875 15.5376C5.01663 18.0914 6.7414 17.4537 8.56748 16.7786C9.66618 16.3724 10.8023 15.9523 11.9037 16.4365C12.362 16.6379 12.6817 17.0123 12.8039 17.4908C12.9308 17.9872 12.8225 18.5225 12.5142 18.9229C12.2075 19.3213 11.6938 19.5673 11.1937 19.5673ZM19.54 12.5338C19.3033 12.534 19.0693 12.4845 18.8531 12.3883C18.4021 12.1871 18.0869 11.8089 17.9656 11.3232C17.674 10.156 18.2795 9.10691 18.8651 8.09241C19.8383 6.40631 20.7575 4.81361 18.6023 2.26606L17.5421 1.01291C17.5129 0.978224 17.4771 0.949683 17.4368 0.928942C17.3964 0.908202 17.3524 0.895676 17.3072 0.892091C17.262 0.888175 17.2165 0.893315 17.1733 0.90721C17.1301 0.921104 17.0902 0.943474 17.0558 0.973009C16.8288 1.16603 16.652 1.41114 16.5405 1.68739C16.4289 1.96363 16.3859 2.26279 16.4152 2.55927L16.4681 3.09446C16.4962 3.3783 16.4548 3.66469 16.3477 3.92903C16.2406 4.19336 16.0709 4.42771 15.8531 4.61193L14.4493 5.79963C14.4046 5.83743 14.353 5.86605 14.2972 5.88388C14.2415 5.9017 14.1828 5.90837 14.1245 5.9035C14.0663 5.89864 14.0095 5.88234 13.9575 5.85552C13.9055 5.82871 13.8593 5.79192 13.8215 5.74725C13.7838 5.7026 13.7551 5.65095 13.7373 5.59524C13.7195 5.53954 13.7128 5.48086 13.7177 5.42258C13.7226 5.36429 13.7388 5.30754 13.7656 5.25555C13.7924 5.20356 13.8292 5.15736 13.8739 5.11959L15.2777 3.93189C15.3853 3.84087 15.4692 3.72506 15.5221 3.59445C15.5751 3.46383 15.5955 3.32231 15.5816 3.18206L15.5287 2.64686C15.4853 2.20717 15.549 1.76352 15.7145 1.35383C15.8799 0.94415 16.1421 0.580633 16.4787 0.294373C16.7305 0.080271 17.0507 -0.022913 17.3801 0.00427458C17.5421 0.0171287 17.7 0.0620524 17.8446 0.136437C17.9891 0.210821 18.1174 0.313183 18.2221 0.437577L19.2823 1.69079C21.8421 4.71652 20.6191 6.83528 19.6365 8.53778C19.094 9.47769 18.6255 10.2895 18.8298 11.1074C18.8984 11.382 19.0777 11.5132 19.2159 11.5748C19.4325 11.6714 19.6934 11.6645 19.8968 11.5568C20.1186 11.4395 20.2885 11.1766 20.3009 10.9319C20.3114 10.7239 20.2089 10.5465 19.9962 10.4048C19.8995 10.3386 19.8327 10.237 19.8103 10.1219C19.788 10.0068 19.8119 9.88757 19.8769 9.79002C19.942 9.69247 20.0428 9.62448 20.1576 9.60079C20.2724 9.57711 20.3919 9.59964 20.4902 9.66349C20.9685 9.98224 21.2172 10.4487 21.1906 10.9769C21.1625 11.5318 20.8101 12.0814 20.3136 12.3442C20.075 12.4703 19.8081 12.5338 19.54 12.5338Z"
			fill="#FF901D" />
		<path
			d="M20.233 26.9907L17.4312 27.192L14.7962 29.8974C14.7646 29.9299 14.7267 29.9557 14.685 29.9733C14.6432 29.9909 14.5984 30 14.553 30H5.16076C4.83662 30 4.69693 29.5891 4.95386 29.3915L13.5545 22.7784L16.3199 18.1691C16.7834 17.3965 17.8551 17.2773 18.4772 17.929L23.6661 21.9042C24.4504 22.5051 24.4989 23.6696 23.7675 24.3337L21.5865 26.3136C21.2065 26.6631 20.7365 26.8982 20.233 26.9907Z"
			fill="#FED9A8" />
		<path
			d="M23.6661 21.9043L22.3975 20.9324C22.5339 21.4757 22.3806 22.0807 21.9266 22.4929L19.7456 24.4728C19.3657 24.8223 18.8957 25.0573 18.3921 25.1498L15.5903 25.3511L11.0624 30H14.553C14.5983 30 14.6432 29.9909 14.6849 29.9733C14.7267 29.9556 14.7645 29.9298 14.7961 29.8974L17.4312 27.192L20.233 26.9906C20.7366 26.8982 21.2065 26.6631 21.5865 26.3136L23.7675 24.3337C24.499 23.6696 24.4504 22.5051 23.6661 21.9043Z"
			fill="#F4C28C" />
		<path
			d="M19.7169 19.6421L20.2405 20.2053C19.9457 20.2368 19.6437 20.1367 19.4299 19.9068L18.9535 19.3943C19.2274 19.3439 19.5169 19.4269 19.7169 19.6421Z"
			fill="#E8D06B" />
		<path d="M26.4621 24.4621L23.1355 27.2599L14.3654 15.2648L16.0918 13.8128L26.4621 24.4621Z"
			fill="#F7BC14" />
		<path
			d="M3.80878 10.3565L6.67489 13.7643C8.70733 16.1808 11.9093 17.3683 15.3008 16.9631L17.3117 16.7229L17.8931 14.7829C18.8735 11.511 18.2525 8.15292 16.22 5.73634L13.3539 2.32858L3.80878 10.3565Z"
			fill="#FED130" />
		<path
			d="M16.22 5.73639L13.3539 2.32864L11.3064 4.05071L14.3283 7.62809C16.3608 10.0447 16.9818 13.4027 16.0014 16.6746L15.9377 16.8871L17.3117 16.723L17.8931 14.7829C18.8735 11.5111 18.2525 8.15303 16.22 5.73639Z"
			fill="#F7BC14" />
		<path
			d="M14.2561 2.68939L4.00948 11.3072C3.9378 11.3675 3.84512 11.3969 3.75182 11.3888C3.65852 11.3807 3.57224 11.336 3.51196 11.2643L2.86356 10.4933C2.80329 10.4216 2.77396 10.329 2.78201 10.2357C2.79006 10.1424 2.83485 10.0561 2.90651 9.9958L13.1531 1.37795C13.2248 1.31768 13.3174 1.28834 13.4107 1.2964C13.504 1.30445 13.5903 1.34924 13.6506 1.4209L14.299 2.19188C14.3289 2.22736 14.3514 2.26838 14.3654 2.31259C14.3794 2.3568 14.3846 2.40333 14.3806 2.44953C14.3766 2.49573 14.3636 2.5407 14.3422 2.58185C14.3208 2.62301 14.2916 2.65955 14.2561 2.68939Z"
			fill="#FFB125" />
		<path
			d="M14.2991 2.19188L13.6507 1.4209C13.5904 1.34924 13.5041 1.30445 13.4108 1.2964C13.3175 1.28834 13.2248 1.31768 13.1532 1.37795L11.343 2.90039L12.4459 4.21184L14.2561 2.68939C14.2916 2.65955 14.3209 2.62301 14.3423 2.58185C14.3636 2.5407 14.3767 2.49573 14.3807 2.44953C14.3847 2.40333 14.3795 2.3568 14.3655 2.31259C14.3515 2.26838 14.3289 2.22736 14.2991 2.19188Z"
			fill="#FF901D" />
		<path
			d="M11.0798 9.20446L12.9136 10.0082C12.9252 10.0133 12.9379 10.0155 12.9505 10.0146C12.9631 10.0137 12.9753 10.0097 12.986 10.003L14.6878 8.948C14.7427 8.91396 14.8129 8.95767 14.8065 9.022L14.6088 11.0145C14.6063 11.04 14.6165 11.0652 14.636 11.0817L16.1653 12.3742C16.2147 12.4159 16.1948 12.4961 16.1316 12.51L14.1756 12.9376C14.1632 12.9403 14.1517 12.946 14.142 12.9542C14.1323 12.9623 14.1248 12.9727 14.12 12.9844L13.3634 14.8382C13.339 14.8981 13.2565 14.9039 13.2238 14.8481L12.2126 13.1199C12.2062 13.109 12.1973 13.0998 12.1865 13.0931C12.1758 13.0865 12.1636 13.0825 12.151 13.0816L10.1541 12.9348C10.0896 12.9301 10.0585 12.8534 10.1015 12.8052L11.4326 11.3094C11.441 11.3 11.447 11.2886 11.45 11.2764C11.4531 11.2641 11.4531 11.2512 11.4501 11.239L10.9725 9.29446C10.9572 9.23177 11.0205 9.17851 11.0798 9.20446Z"
			fill="white" />
		<path
			d="M28.9527 24.2216L22.7041 29.477C22.4329 29.7052 22.0222 29.6389 21.8365 29.3369L20.8038 27.6572C20.731 27.5388 20.7031 27.3981 20.7253 27.2609C20.7474 27.1236 20.8181 26.9989 20.9245 26.9094L26.7281 22.0284C26.8345 21.9389 26.9695 21.8906 27.1085 21.8923C27.2475 21.894 27.3813 21.9456 27.4855 22.0376L28.9634 23.343C29.229 23.5776 29.224 23.9935 28.9527 24.2216Z"
			fill="#FFB125" />
		<path
			d="M28.9634 23.3429L27.4855 22.0375C27.3813 21.9455 27.2475 21.8939 27.1085 21.8922C26.9695 21.8905 26.8345 21.9388 26.7281 22.0283L25.0348 23.4525L27.3918 25.5344L28.9527 24.2216C29.224 23.9935 29.229 23.5776 28.9634 23.3429Z"
			fill="#FF901D" />
		<path
			d="M22.6316 24.2414C23.0548 24.6973 23.7675 24.7237 24.2233 24.3003L25.6329 22.9907C26.0884 22.5675 26.1148 21.8553 25.6917 21.3996C25.2685 20.9437 24.5558 20.9173 24.1 21.3407L22.6904 22.6503C22.2349 23.0734 22.2085 23.7857 22.6316 24.2414Z"
			fill="#F4C28C" />
		<path
			d="M22.6904 22.6502L24.1001 21.3406C24.5558 20.9172 25.2685 20.9436 25.6918 21.3995C25.9371 21.6639 26.031 22.0146 25.9779 22.3451C25.5491 21.9797 24.9051 21.9852 24.4823 22.378L23.0726 23.6875C22.8886 23.8581 22.7672 24.0854 22.7276 24.3331C22.6938 24.3044 22.6617 24.2738 22.6315 24.2414C22.2085 23.7857 22.2349 23.0734 22.6904 22.6502Z"
			fill="#FED9A8" />
		<path
			d="M21.5022 22.2093C21.9318 22.672 22.6553 22.6988 23.1179 22.269L24.5027 20.9826C24.965 20.5531 24.9918 19.83 24.5624 19.3675C24.1328 18.9047 23.4092 18.8779 22.9466 19.3077L21.5619 20.5941C21.0995 21.0237 21.0728 21.7467 21.5022 22.2093Z"
			fill="#F4C28C" />
		<path
			d="M21.5619 20.5941L22.9466 19.3076C23.4093 18.8779 24.1328 18.9046 24.5624 19.3674C24.8085 19.6326 24.9044 19.9832 24.8548 20.3152C24.4195 19.9364 23.7596 19.9393 23.3274 20.3408L21.9426 21.6273C21.7528 21.8032 21.6286 22.0387 21.5906 22.2947C21.5596 22.2678 21.5301 22.2393 21.5022 22.2093C21.0728 21.7467 21.0995 21.0237 21.5619 20.5941Z"
			fill="#FED9A8" />
		<path
			d="M19.9391 20.5484C20.3687 21.0112 21.0922 21.038 21.5548 20.6082L22.9396 19.3218C23.402 18.8922 23.4287 18.1692 22.9993 17.7066C22.5697 17.2439 21.8462 17.2171 21.3836 17.6469L19.9988 18.9333C19.5365 19.3629 19.5097 20.0859 19.9391 20.5484Z"
			fill="#F4C28C" />
		<path
			d="M19.9989 18.9333L21.3836 17.6469C21.8463 17.2171 22.5697 17.2439 22.9993 17.7066C23.029 17.7386 23.0562 17.7718 23.0815 17.8061C22.8213 17.824 22.5752 17.9308 22.3843 18.1086L20.9995 19.3951C20.569 19.795 20.5164 20.4492 20.8576 20.9108C20.5245 20.9341 20.1841 20.8123 19.9392 20.5484C19.5097 20.0859 19.5365 19.3629 19.9989 18.9333Z"
			fill="#FED9A8" />
		<path
			d="M18.4338 18.8254C18.8634 19.2882 19.5869 19.315 20.0495 18.8852L21.4342 17.5987C21.8966 17.1692 21.9234 16.4462 21.4939 15.9836C21.0643 15.5208 20.3408 15.4941 19.8782 15.9238L18.4935 17.2103C18.0311 17.6398 18.0044 18.3629 18.4338 18.8254Z"
			fill="#F4C28C" />
		<path
			d="M18.4935 17.2103L19.8782 15.9238C20.3409 15.4941 21.0643 15.5208 21.4939 15.9836C21.7398 16.2485 21.8358 16.5987 21.7865 16.9303C21.3513 16.5508 20.6908 16.5535 20.2583 16.9553L18.8736 18.2418C18.6834 18.4179 18.5592 18.6538 18.5213 18.9102C18.4906 18.8835 18.4614 18.8552 18.4338 18.8255C18.0044 18.3629 18.0311 17.6398 18.4935 17.2103Z"
			fill="#FED9A8" />
		<path
			d="M21.0796 19.7002L20.8228 19.9388C20.4188 20.3142 19.7953 20.2998 19.4299 19.9068L18.7834 19.2114C18.4669 18.8709 17.9262 18.8603 17.5784 19.1877C17.7731 22.1993 13.5546 22.7785 13.5546 22.7785L15.3476 18.3681C15.4589 18.038 15.6499 17.7404 15.9038 17.5017L17.1772 16.3032C17.7963 15.7206 18.7585 15.7391 19.3223 16.3447L21.1491 18.3069C21.5154 18.7001 21.4842 19.3243 21.0796 19.7002Z"
			fill="#FED9A8" />
	</g>
</svg>
	