<svg xmlns="http://www.w3.org/2000/svg" version="1.1" xmlns:xlink="http://www.w3.org/1999/xlink" xmlns:svgjs="http://svgjs.com/svgjs" viewBox="0 0 512 512" style="enable-background:new 0 0 512 512" xml:space="preserve">
  <g>
    <path d="M482 348H358c-3.506 0-6.87.61-10 1.72V276c0-16.542-13.458-30-30-30H194c-16.542 0-30 13.458-30 30v121.72a29.857 29.857 0 0 0-10-1.72H30c-16.542 0-30 13.458-30 30v76c0 5.523 4.477 10 10 10h492c5.523 0 10-4.477 10-10V378c0-16.542-13.458-30-30-30zM164 492H20v-66c0-5.514 4.486-10 10-10h124c5.514 0 10 4.486 10 10v66zm164-114v114h-96v-89.049c0-5.523-4.477-10-10-10s-10 4.477-10 10V492h-28V276c0-5.514 4.486-10 10-10h124c5.514 0 10 4.486 10 10v102zm164 114H348V378c0-5.514 4.486-10 10-10h124c5.514 0 10 4.486 10 10v114zM331.865 126.81a10.002 10.002 0 0 0-8.075-6.804l-40.649-5.896-18.188-36.828a10 10 0 0 0-8.966-5.572h-.002a10 10 0 0 0-8.966 5.577l-18.168 36.838-40.646 5.917a10.002 10.002 0 0 0-5.539 17.059l29.42 28.663-6.933 40.485a10 10 0 0 0 14.512 10.538l36.352-19.124 36.362 19.104a10 10 0 0 0 14.507-10.546l-6.955-40.481 29.406-28.678a10.001 10.001 0 0 0 2.528-10.252zm-49.661 28.284a10.002 10.002 0 0 0-2.874 8.853l4.414 25.693-23.079-12.125a10 10 0 0 0-9.307.002l-23.072 12.138 4.4-25.695a10 10 0 0 0-2.878-8.851l-18.673-18.192 25.799-3.758a10.001 10.001 0 0 0 7.528-5.472l11.532-23.38 11.543 23.374a10.004 10.004 0 0 0 7.531 5.469l25.8 3.742-18.664 18.202z" fill="#ddf" data-original="#ddf">
    </path>
    <path d="M511.509 228.873a10.002 10.002 0 0 0-8.075-6.804l-40.649-5.896-18.188-36.828a10.001 10.001 0 0 0-8.966-5.572h-.002a10 10 0 0 0-8.966 5.577l-18.168 36.838-40.646 5.917a10 10 0 0 0-5.538 17.059l29.42 28.663-6.933 40.485a10 10 0 0 0 14.512 10.538l36.351-19.124 36.362 19.104a10 10 0 0 0 14.507-10.545l-6.954-40.482 29.405-28.678a10.001 10.001 0 0 0 2.528-10.252zm-49.66 28.284a10.001 10.001 0 0 0-2.874 8.852l4.414 25.693-23.079-12.125a10 10 0 0 0-9.307.002l-23.072 12.138 4.4-25.695a10 10 0 0 0-2.878-8.851l-18.673-18.192 25.799-3.757a10.001 10.001 0 0 0 7.528-5.472l11.531-23.38 11.544 23.375a10 10 0 0 0 7.531 5.468l25.799 3.742-18.663 18.202zM152.221 276.873a10.002 10.002 0 0 0-8.075-6.804l-40.649-5.896-18.188-36.828a10.001 10.001 0 0 0-8.966-5.572h-.003a10 10 0 0 0-8.966 5.577l-18.168 36.838-40.646 5.918a10 10 0 0 0-5.538 17.058l29.421 28.663-6.933 40.485a10 10 0 0 0 14.512 10.538l36.351-19.124 36.362 19.104a10 10 0 0 0 14.507-10.545l-6.954-40.482 29.405-28.678a10.001 10.001 0 0 0 2.528-10.252zm-49.662 28.284a10.001 10.001 0 0 0-2.874 8.852l4.414 25.693-23.079-12.125a10 10 0 0 0-9.307.002l-23.072 12.138 4.4-25.695a10 10 0 0 0-2.878-8.851L31.49 286.979l25.799-3.757a10.001 10.001 0 0 0 7.528-5.472l11.531-23.38 11.544 23.375a10 10 0 0 0 7.531 5.468l25.799 3.742-18.663 18.202zM256 0c-5.523 0-10 4.477-10 10v34.333c0 5.524 4.477 10.001 10 10.001s10-4.477 10-10V10c0-5.523-4.477-10-10-10zM363.244 44.422c-3.905-3.905-10.237-3.905-14.143 0l-24.277 24.277c-3.905 3.905-3.905 10.237 0 14.143a9.97 9.97 0 0 0 7.072 2.929 9.966 9.966 0 0 0 7.071-2.929l24.277-24.277c3.905-3.905 3.905-10.237 0-14.143zM187.175 68.699l-24.277-24.277c-3.905-3.905-10.237-3.905-14.143 0-3.905 3.905-3.905 10.237 0 14.143l24.278 24.277c1.953 1.953 4.512 2.929 7.071 2.929s5.119-.976 7.071-2.929c3.905-3.905 3.905-10.237 0-14.143zM222 351.236c-5.523 0-10 4.477-10 10v.13c0 5.523 4.477 10 10 10s10-4.477 10-10v-.13c0-5.523-4.477-10-10-10z" fill="#ddf" data-original="#ddf">
    </path>
  </g>
</svg>