<svg viewBox="0 0 16 16" fill="none" xmlns="http://www.w3.org/2000/svg">
  <g clip-path="url(#clip0_26_499)">
    <path
      d="M8.90919 5.36742L8.39937 5.01601C8.38076 5.00319 8.35976 4.99407 8.33755 4.98919C8.31534 4.98431 8.29237 4.98375 8.26994 4.98755C8.24752 4.99135 8.22607 4.99943 8.20684 5.01134C8.18761 5.02324 8.17097 5.03873 8.15786 5.05693L4.98144 9.46289C4.96478 9.48603 4.95431 9.51286 4.95098 9.54096C4.94765 9.56906 4.95156 9.59753 4.96236 9.62378C4.97316 9.65002 4.9905 9.6732 5.01281 9.69122C5.03511 9.70923 5.06167 9.7215 5.09007 9.72691L5.22147 9.75185C5.26165 9.75948 5.29971 9.7754 5.33309 9.79857C5.36649 9.82153 5.39449 9.85121 5.4152 9.88562L5.48338 9.99855C5.4987 10.0239 5.52053 10.045 5.54671 10.0596C5.57289 10.0742 5.60252 10.0819 5.63266 10.0819C5.66042 10.0819 5.68778 10.0753 5.71243 10.0628C5.73707 10.0503 5.75829 10.0322 5.77428 10.01L8.95103 5.60362C8.9775 5.56686 8.98796 5.52134 8.98011 5.47705C8.97227 5.43276 8.94675 5.39332 8.90919 5.36742Z"
      fill="#F99841" />
    <path
      d="M10.1768 6.24111L9.66697 5.8897C9.6294 5.86382 9.58284 5.85358 9.53755 5.86125C9.49226 5.86892 9.45193 5.89386 9.42544 5.93058L6.24898 10.3366C6.23232 10.3597 6.22184 10.3865 6.2185 10.4146C6.21517 10.4427 6.21907 10.4712 6.22987 10.4974C6.24067 10.5237 6.25801 10.5469 6.28032 10.5649C6.30263 10.5829 6.3292 10.5952 6.3576 10.6006L6.489 10.6255C6.52917 10.6331 6.56721 10.649 6.6006 10.6722C6.63402 10.6952 6.66203 10.7249 6.68274 10.7594L6.75097 10.8723C6.76629 10.8977 6.78812 10.9187 6.8143 10.9333C6.84047 10.9479 6.87009 10.9556 6.90023 10.9556C6.92799 10.9556 6.95535 10.9491 6.98 10.9366C7.00465 10.9241 7.02587 10.906 7.04187 10.8838L10.2186 6.47728C10.2451 6.44053 10.2556 6.39501 10.2477 6.35072C10.2399 6.30644 10.2144 6.26701 10.1768 6.24111Z"
      fill="#FFD05C" />
    <path
      d="M9.6139 5.91389C9.61003 5.89196 9.60177 5.87099 9.58961 5.85219C9.57744 5.83338 9.56161 5.8171 9.54301 5.80428L9.03313 5.45287C9.01453 5.44004 8.99352 5.43093 8.97131 5.42604C8.94911 5.42115 8.92613 5.42059 8.90371 5.42439C8.88128 5.42818 8.85983 5.43626 8.8406 5.44816C8.82136 5.46007 8.80471 5.47555 8.7916 5.49375L5.61516 9.89972C5.59849 9.92284 5.588 9.94968 5.58466 9.97778C5.58131 10.0059 5.58522 10.0344 5.59602 10.0606C5.60682 10.0869 5.62417 10.1101 5.64648 10.1281C5.6688 10.1461 5.69537 10.1583 5.72378 10.1637L5.85521 10.1887C5.8954 10.1963 5.93345 10.2122 5.96682 10.2354C6.00023 10.2583 6.02823 10.288 6.0489 10.3225L6.11712 10.4354C6.13244 10.4607 6.15427 10.4818 6.18045 10.4964C6.20662 10.511 6.23624 10.5187 6.26638 10.5186C6.29415 10.5187 6.32152 10.5121 6.34617 10.4996C6.37082 10.4871 6.39204 10.469 6.40804 10.4468L9.58481 6.04044C9.61127 6.00369 9.62173 5.95818 9.6139 5.91389Z"
      fill="#FBB85F" />
    <path
      d="M10.2503 6.43816L10.913 5.51411C10.9395 5.47737 10.95 5.43185 10.9421 5.38757C10.9343 5.34328 10.9088 5.30386 10.8712 5.27796L9.09382 4.05284C9.07521 4.04002 9.05421 4.0309 9.03201 4.02602C9.0098 4.02113 8.98683 4.02057 8.96441 4.02436C8.94198 4.02816 8.92054 4.03623 8.9013 4.04813C8.88207 4.06003 8.86542 4.07551 8.85231 4.0937L8.18768 5.02534L10.2503 6.43816Z"
      fill="#D1D6E4" />
    <path
      d="M10.7716 3.86543C10.7373 3.84213 10.7026 3.81848 10.6674 3.79423L10.5914 3.74182C10.5614 3.72114 10.5315 3.70037 10.5016 3.67952L10.4872 3.66948C10.212 3.47741 9.95193 3.29601 9.70346 3.29601C9.51766 3.29601 9.35822 3.39187 9.21606 3.58905L8.8338 4.1193L10.8888 5.54767L11.2769 5.00944C11.3976 4.84205 11.4433 4.68875 11.4166 4.54077C11.3682 4.27171 11.092 4.08364 10.7716 3.86543Z"
      fill="#EF5440" />
    <path opacity="0.15"
      d="M8.50621 5.24359C8.51352 5.23438 8.52176 5.22591 8.5308 5.21832L8.53078 5.2183L9.1771 4.31231L9.17697 4.31223L9.19522 4.28692L9.19541 4.28665L9.19543 4.28664L9.55924 3.78198C9.70139 3.5848 9.86083 3.48894 10.0466 3.48894C10.1331 3.48894 10.221 3.51125 10.3105 3.54802C10.2626 3.51586 10.2138 3.48497 10.1642 3.45537C10.1589 3.45223 10.1536 3.44906 10.1482 3.44599C10.1333 3.43726 10.1182 3.42876 10.103 3.4205C10.0951 3.41618 10.0872 3.41182 10.0793 3.40767C10.069 3.40224 10.0586 3.39694 10.0481 3.39178C10.0396 3.38751 10.031 3.38345 10.0225 3.37942C10.0135 3.37514 10.0045 3.37097 9.99541 3.3669C9.98919 3.36415 9.983 3.36155 9.97681 3.35894C9.96817 3.35527 9.95946 3.35172 9.95071 3.3483C9.94482 3.34601 9.93892 3.34369 9.93303 3.34151C9.92287 3.33779 9.91265 3.33425 9.90237 3.33089C9.8982 3.32953 9.89399 3.32797 9.8898 3.3267C9.87586 3.32236 9.8618 3.31841 9.84762 3.31487C9.84349 3.31383 9.83936 3.31301 9.83523 3.31207C9.82494 3.30966 9.81459 3.3075 9.80418 3.3056C9.79926 3.30469 9.79429 3.30391 9.78937 3.30313C9.7794 3.30158 9.7694 3.30028 9.75937 3.29923C9.75491 3.29877 9.75045 3.29822 9.74601 3.29786C9.73186 3.29669 9.71768 3.29607 9.70348 3.29601C9.51769 3.29601 9.35824 3.39187 9.21608 3.58905L8.85227 4.0937L8.85225 4.09372L8.85205 4.09399L8.83381 4.1193L8.83394 4.11938L8.18762 5.02537L8.50621 5.24359Z"
      fill="#30302F" />
    <path
      d="M5.59215 11.3866L4.97556 10.9616C4.94883 10.9432 4.91767 10.9318 4.88511 10.9287C4.85256 10.9255 4.81972 10.9306 4.7898 10.9436C4.72891 10.9698 4.70969 10.8632 4.70137 10.9277L4.5775 11.8697C4.57316 11.9031 4.57821 11.937 4.5921 11.9678C4.60598 11.9986 4.62818 12.0251 4.65632 12.0445C4.68445 12.0639 4.71746 12.0754 4.75179 12.0779C4.78612 12.0803 4.82049 12.0736 4.8512 12.0584L5.69403 11.6315C5.75341 11.6021 5.66716 11.6165 5.67199 11.5516C5.67436 11.5197 5.66826 11.4878 5.65427 11.4589C5.64028 11.43 5.61888 11.4051 5.59215 11.3866Z"
      fill="#415B6B" />
    <path
      d="M6.86134 10.2952C6.75681 10.2232 6.62694 10.1942 6.49902 10.2155C6.4766 10.2193 6.45448 10.2246 6.43281 10.2314C6.42798 10.0876 6.35683 9.94751 6.22756 9.85841C6.14577 9.80188 6.04803 9.77161 5.94787 9.7718C5.92022 9.7718 5.89245 9.77413 5.86528 9.77872C5.84285 9.78251 5.82071 9.78781 5.79902 9.79459C5.79425 9.65081 5.72308 9.51068 5.59381 9.4216C5.51203 9.36503 5.41426 9.33474 5.31408 9.33493C5.28647 9.33493 5.25874 9.33726 5.23153 9.34185C5.10426 9.36339 4.99303 9.43207 4.91812 9.5355L4.89802 9.56332C4.88168 9.586 4.87126 9.61226 4.8677 9.63979L4.68884 11.0246C4.69805 11.0296 4.70699 11.035 4.7157 11.0409L5.62245 11.6659C5.62719 11.6641 5.63188 11.6623 5.63649 11.66L6.89537 11.0373C6.92065 11.0248 6.94241 11.0064 6.95874 10.9838L6.97914 10.9555C7.13232 10.7417 7.0795 10.4456 6.86134 10.2952Z"
      fill="#E2B186" />
    <path opacity="0.15"
      d="M4.82753 12.0601L4.94896 12L5.29294 9.33594C5.27235 9.3366 5.25182 9.33858 5.23149 9.34185C5.10422 9.36339 4.99298 9.43207 4.91807 9.53551L4.89798 9.56332C4.88163 9.586 4.87122 9.61226 4.86765 9.63979L4.68849 11.0274C4.68518 11.053 4.68797 11.0791 4.69663 11.1036C4.68213 11.125 4.67282 11.1494 4.66943 11.1749L4.57735 11.8877C4.57341 11.9182 4.57804 11.9492 4.59074 11.9773C4.60344 12.0055 4.62373 12.0297 4.64943 12.0474C4.67516 12.0651 4.70532 12.0756 4.73669 12.0779C4.76805 12.0801 4.79945 12.074 4.82753 12.0601Z"
      fill="#30302F" />
    <path
      d="M0 8C0 12.4183 3.58166 16 8 16C12.4183 16 16 12.4183 16 8C16 3.58166 12.4183 0 8 0C3.58166 0 0 3.58166 0 8ZM11.1522 13.0769C11.0225 13.1576 10.8896 13.2331 10.754 13.3034C9.98119 13.7061 9.11094 13.9446 8.18716 13.9729C4.80653 14.0772 1.99347 11.3261 2.02444 7.94413C2.03316 6.97128 2.27484 6.05425 2.69559 5.24497C2.76612 5.10946 2.8419 4.97674 2.92275 4.84713C2.95922 4.78841 3.04084 4.77872 3.08956 4.82744L11.1719 12.9098C11.2206 12.9585 11.2109 13.0401 11.1522 13.0769ZM13.9759 8C13.9759 8.9935 13.7332 9.93022 13.3044 10.754C13.2339 10.8897 13.1582 11.0226 13.0776 11.1525C13.0408 11.2116 12.9592 11.2212 12.9104 11.1725L4.8275 3.08959C4.77878 3.04088 4.78847 2.95922 4.8475 2.92244C4.97742 2.84182 5.11035 2.76615 5.246 2.69559C6.07075 2.26675 7.0065 2.02413 8 2.02413C11.3003 2.02413 13.9759 4.69875 13.9759 8Z"
      fill="#E94444" />
    <path
      d="M1.42303 3.41717C2.89022 1.65957 5.09763 0.541512 7.56638 0.541512C11.9847 0.541512 15.5664 4.12317 15.5664 8.54151C15.5664 10.2429 15.0349 11.8208 14.1292 13.1173C15.2886 11.7295 15.9858 9.94257 15.9858 7.99298C15.9858 3.57464 12.4042 -0.00701904 7.98585 -0.00701904C5.26928 -0.00701904 2.86891 1.34692 1.42303 3.41717Z"
      fill="#D83131" />
  </g>
</svg>
  