<svg xmlns="http://www.w3.org/2000/svg" version="1.1" xmlns:xlink="http://www.w3.org/1999/xlink"
  xmlns:svgjs="http://svgjs.com/svgjs" viewBox="0 0 512 512"
  style="enable-background:new 0 0 512 512" xml:space="preserve" class="">
  <g>
    <circle cx="256" cy="267" r="245" fill="#ffe177" data-original="#ffe177" class=""></circle>
    <g fill="#fe646f">
      <path d="m44.249 226.545 63.724 24.594c-5.44-8.274-4.526-19.53 2.744-26.8a21.194 21.194 0 0 1 15.084-6.248 21.193 21.193 0 0 1 15.084 6.248l1.414-1.414-7.779-7.78c-4.029-4.029-6.248-9.386-6.248-15.084s2.219-11.055 6.248-15.084 9.386-6.248 15.084-6.248 11.055 2.219 15.084 6.248l1.414-1.414c-4.029-4.029-6.248-9.386-6.248-15.084s2.219-11.055 6.248-15.084 9.386-6.248 15.084-6.248 11.055 2.219 15.084 6.248l7.78 7.78 1.414-1.414a21.19 21.19 0 0 1-6.248-15.084 21.193 21.193 0 0 1 6.248-15.084c4.016-4.016 9.366-6.228 15.064-6.228.892 0 1.793.056 2.679.167l1.175.147-.052-1.184a33.217 33.217 0 0 1-.038-1.485c0-5.33 4.336-9.667 9.666-9.667h66.707c11.763 0 21.333 9.57 21.333 21.333a21.18 21.18 0 0 1-1.69 8.334l-.442 1.041 1.086.312a21.347 21.347 0 0 1 9.179 5.411c4.029 4.029 6.249 9.386 6.249 15.084s-2.219 11.055-6.249 15.084l1.414 1.414a21.194 21.194 0 0 1 15.084-6.248c5.698 0 11.055 2.219 15.084 6.248s6.249 9.387 6.249 15.084a21.19 21.19 0 0 1-6.249 15.084l-7.779 7.779 1.414 1.414c4.029-4.029 9.386-6.248 15.084-6.248s11.055 2.219 15.084 6.248c8.317 8.318 8.317 21.852 0 30.169l-31.955 31.955 43.061 37.755h19.255c3.878 0 6.277-4.225 4.291-7.555l-29.029-48.669a4.996 4.996 0 0 1 2.492-7.22l74.116-28.604c4.263-1.645 4.263-7.677 0-9.322l-74.116-28.604a4.996 4.996 0 0 1-2.492-7.22l29.029-48.669c1.986-3.33-.413-7.555-4.291-7.555h-58.175a4.996 4.996 0 0 1-4.996-4.996V62.003c0-3.878-4.225-6.277-7.555-4.291l-48.526 28.944c-2.706 1.614-6.213.35-7.268-2.619L260.708 3.325c-1.574-4.433-7.843-4.433-9.417 0l-28.653 80.711c-1.054 2.97-4.561 4.234-7.268 2.619l-48.526-28.944c-3.33-1.986-7.555.413-7.555 4.291v58.175a4.996 4.996 0 0 1-4.996 4.996H96.119c-3.878 0-6.277 4.225-4.291 7.555l29.029 48.669a4.996 4.996 0 0 1-2.492 7.22l-74.116 28.604c-4.263 1.647-4.263 7.679 0 9.324zM120.006 263.796l-28.178 47.242c-1.986 3.33.413 7.555 4.291 7.555h9.183l36.944-32.558zM270.35 355.558c-1.269-1.271-2.896-1.946-4.627-1.946a6.406 6.406 0 0 0-3.623 1.118c-7.306 4.986-15.871 7.622-24.771 7.622-2.728 0-5.468-.254-8.146-.755l-.558-.104-3.569 4.042 26.283 68.101c1.645 4.263 7.677 4.263 9.322 0l23.898-61.922z" fill="#fe646f" data-original="#fe646f"></path>
    </g>
    <g fill="#fd4755">
      <path d="m120.006 263.796-28.178 47.242c-1.986 3.33.413 7.555 4.291 7.555h9.183l36.944-32.558zM44.249 226.545l63.724 24.594c-5.44-8.274-4.526-19.53 2.744-26.8a21.194 21.194 0 0 1 15.084-6.248 21.193 21.193 0 0 1 15.084 6.248l1.414-1.414-7.779-7.78c-4.029-4.029-6.248-9.386-6.248-15.084s2.219-11.055 6.248-15.084 9.386-6.248 15.084-6.248 11.055 2.219 15.084 6.248l.985-.985.099-.792c-3.811-3.987-5.919-9.188-5.919-14.721a21.193 21.193 0 0 1 6.248-15.084 21.307 21.307 0 0 1 6.548-4.46 232.04 232.04 0 0 1 32.112-68.604l-37.918-22.616c-3.33-1.986-7.555.413-7.555 4.291v58.175a4.996 4.996 0 0 1-4.996 4.996H96.119c-3.878 0-6.277 4.225-4.291 7.555l29.029 48.669a4.996 4.996 0 0 1-2.492 7.22l-74.116 28.604c-4.263 1.643-4.263 7.675 0 9.32z" fill="#fd4755" data-original="#fd4755"></path>
    </g>
    <path fill="#ffdfcf" d="M354.274 280.131 298.8 335.605c-8.309 8.308-19.355 12.884-31.104 12.884h-.003a44.107 44.107 0 0 1-21.563-5.627l-.705-.396-17.563 19.89c11.817 2.528 24.454.262 34.801-6.8a5.46 5.46 0 0 1 6.936.663l108.43 123.275c39.504-22.735 72.064-56.172 93.736-96.348z" data-original="#ffdfcf" class=""></path>
    <path fill="#ffcebf" d="M294.293 340.781c-14.314 10.521-33.437 11.505-48.654 2.953l-16.64 18.846c11.487 2.15 23.648-.187 33.664-7.024a5.46 5.46 0 0 1 6.936.663l108.43 123.275a245.206 245.206 0 0 0 23.985-15.75zM235.635 129.589l9.672 9.672 15.294-15.294a21.194 21.194 0 0 1 15.084-6.248c5.698 0 11.055 2.219 15.084 6.248s6.249 9.386 6.249 15.084-2.219 11.055-6.249 15.084l.87.87h1.088l7.236-7.236a21.193 21.193 0 0 1 15.084-6.248c1.978 0 3.909.284 5.763.802a22.243 22.243 0 0 0 2.188-9.651c0-12.334-9.999-22.333-22.333-22.333h-66.706c-5.891 0-10.666 4.775-10.666 10.666 0 .857.042 1.704.105 2.545a21.167 21.167 0 0 1 12.237 6.039z" data-original="#ffcebf" class=""></path>
    <path fill="#ffb09e" d="M386.227 218.009c-8.721-8.721-22.861-8.721-31.582-.001l7.779-7.779c8.721-8.721 8.721-22.862 0-31.583s-22.862-8.721-31.583 0c8.721-8.721 8.721-22.862 0-31.583s-22.862-8.721-31.583 0l-7.78 7.78c8.721-8.721 8.721-22.862 0-31.583s-22.862-8.721-31.583 0L244.6 138.554l25.986 25.986c8.317 8.318 8.317 21.852 0 30.169-4.03 4.029-9.387 6.249-15.085 6.249s-11.055-2.219-15.084-6.249l-7.78-7.779-1.414 1.414c4.029 4.029 6.249 9.386 6.249 15.084s-2.219 11.055-6.249 15.084c-4.029 4.029-9.386 6.248-15.084 6.248s-11.055-2.219-15.084-6.248l-1.414 1.414c4.029 4.029 6.249 9.386 6.249 15.084s-2.219 11.055-6.249 15.084c-4.029 4.029-9.386 6.248-15.084 6.248s-11.055-2.219-15.084-6.248l-1.414 1.414 7.78 7.78c8.317 8.317 8.317 21.851 0 30.169a21.194 21.194 0 0 1-15.084 6.248 21.193 21.193 0 0 1-15.084-6.248l-4.13-4.13-104.357 91.965c20.662 40.912 52.452 75.244 91.402 99.007l117.053-132.564c17.152 9.64 39.271 7.174 53.867-7.421l86.721-86.721c8.721-8.723 8.721-22.863 0-31.584z" data-original="#ffb09e"></path>
    <g fill="#f89580">
      <path d="M291.478 123.26c-8.721-8.721-22.862-8.721-31.583 0l-14.587 14.587 17.788 17.788 16.616-16.616c4.749-4.749 11.104-6.891 17.317-6.468a22.134 22.134 0 0 0-5.551-9.291zM144.96 290.165l-4.174-4.174-103.602 91.301a244.675 244.675 0 0 0 12.973 22.598l117.571-104.32c-7.748 2.543-16.607.756-22.768-5.405z" fill="#f89580" data-original="#f89580"></path>
    </g>
    <path fill="#ffdfcf" d="m271.293 163.833-34.95-34.95c-8.721-8.721-22.862-8.721-31.583 0s-8.721 22.862 0 31.583l-7.78-7.78c-8.721-8.721-22.862-8.721-31.583 0s-8.721 22.862 0 31.583c-8.721-8.721-22.862-8.721-31.583 0s-8.721 22.862 0 31.583l7.78 7.78c-8.721-8.721-22.862-8.721-31.583 0s-8.721 22.862 0 31.583l34.95 34.95c8.721 8.721 22.862 8.721 31.583 0s8.721-22.862 0-31.583l-7.78-7.78c8.721 8.721 22.862 8.721 31.583 0s8.721-22.862 0-31.583c8.721 8.721 22.862 8.721 31.583 0s8.721-22.862 0-31.583l7.78 7.78c8.721 8.721 22.862 8.721 31.583 0 8.721-8.722 8.721-22.862 0-31.583z" data-original="#ffdfcf" class=""></path>
    <g fill="#ffcebf">
      <path d="M200.347 232.707c-8.721 8.721-22.862 8.721-31.583 0l-34.95-34.95a22.234 22.234 0 0 1-4.607-6.744c-3.632 8.195-2.111 18.121 4.607 24.839l34.95 34.95c8.721 8.721 22.862 8.721 31.583 0 6.718-6.718 8.239-16.644 4.607-24.839a22.234 22.234 0 0 1-4.607 6.744zM235.988 200.902c-8.721 8.721-22.862 8.721-31.583 0l-34.95-34.95a22.201 22.201 0 0 1-6.005-11.007c-6.694 8.755-6.059 21.317 1.947 29.324l34.95 34.95c8.721 8.721 22.862 8.721 31.583 0 5.586-5.586 7.575-13.392 6.005-20.576a22.403 22.403 0 0 1-1.947 2.259zM248.722 176.774l-34.95-34.95c-4.177-4.177-6.33-9.597-6.507-15.069a22.337 22.337 0 0 0-2.505 2.128c-8.721 8.721-8.721 22.862 0 31.583l34.95 34.95c8.721 8.721 22.862 8.721 31.583 0 4.545-4.545 6.698-10.56 6.507-16.514-8.744 6.496-21.146 5.804-29.078-2.128z" fill="#ffcebf" data-original="#ffcebf" class=""></path>
    </g>
    <path fill="#fe646f" d="m424.314 265.568 49.405-9.063c3.786-.694 6.904 2.97 5.612 6.596l-16.854 47.318c-1.291 3.626-6.024 4.494-8.518 1.563l-32.551-38.255c-2.495-2.933-.88-7.465 2.906-8.159z" data-original="#fe646f"></path>
    <path fill="#fd4755" d="m436.752 266.442 29.176 34.288-3.451 9.688c-1.292 3.626-6.024 4.494-8.518 1.563l-32.551-38.255c-2.494-2.931-.88-7.464 2.906-8.158l11.255-2.065a4.928 4.928 0 0 0 1.183 2.939z" data-original="#fd4755"></path>
    <path fill="#fe646f" d="m87.686 265.568-49.405-9.063c-3.786-.694-6.904 2.97-5.612 6.596l16.854 47.318c1.291 3.626 6.024 4.494 8.518 1.563l32.551-38.255c2.495-2.933.88-7.465-2.906-8.159z" data-original="#fe646f"></path>
    <path fill="#fd4755" d="m87.686 265.568-49.405-9.063c-3.786-.694-6.904 2.97-5.612 6.596l4.177 11.727 45.678 8.379 8.068-9.481c2.495-2.932.88-7.464-2.906-8.158z" data-original="#fd4755"></path>
    <path fill="#ffcebf" d="M181.151 271.093c-8.721 8.721-22.862 8.721-31.583 0l-34.95-34.95a22.196 22.196 0 0 1-5.997-10.974c-7.295 8.774-6.838 21.818 1.39 30.045l34.95 34.95c8.721 8.721 22.862 8.721 31.583 0 5.595-5.595 7.581-13.415 5.997-20.609a22.275 22.275 0 0 1-1.39 1.538z" data-original="#ffcebf" class=""></path>
    <path fill="#fe646f" d="m385.788 104.836 48.518-13c3.718-.996 4.963-5.644 2.241-8.365L401.03 47.953c-2.722-2.722-7.369-1.476-8.365 2.241l-13 48.518c-.997 3.718 2.405 7.12 6.123 6.124z" data-original="#fe646f"></path>
    <path fill="#fd4755" d="m396.649 98.712 11.652-43.487-7.272-7.272c-2.722-2.722-7.369-1.476-8.365 2.241l-13 48.518c-.996 3.718 2.406 7.12 6.124 6.124l11.053-2.962a4.933 4.933 0 0 1-.192-3.162z" data-original="#fd4755"></path>
    <path fill="#fe646f" d="m137.351 90.701-13-48.518c-.996-3.718-5.644-4.963-8.365-2.241L80.468 75.459c-2.722 2.722-1.476 7.369 2.241 8.365l48.518 13c3.718.996 7.12-2.406 6.124-6.123z" data-original="#fe646f"></path>
    <path fill="#fd4755" d="M134.568 80.315 88.07 67.856l-7.603 7.603c-2.722 2.722-1.476 7.369 2.241 8.365l48.518 13c3.718.996 7.12-2.406 6.124-6.124z" data-original="#fd4755"></path>
  </g>
</svg>